<?xml version="1.0" standalone="no"?>
<!DOCTYPE svg PUBLIC "-//W3C//DTD SVG 20010904//EN"
 "http://www.w3.org/TR/2001/REC-SVG-20010904/DTD/svg10.dtd">
<svg version="1.0" xmlns="http://www.w3.org/2000/svg"
 width="638.000000pt" height="1314.000000pt" viewBox="0 0 638.000000 1314.000000"
 preserveAspectRatio="xMidYMid meet">

<g transform="translate(0.000000,1314.000000) scale(0.100000,-0.100000)"
fill="#000000" stroke="none">
<path d="M6075 12731 c-22 -16 -65 -64 -95 -106 -36 -50 -63 -77 -80 -81 -48
-10 -90 -34 -172 -97 -134 -102 -278 -153 -885 -317 -535 -144 -620 -158
-1217 -195 -625 -39 -817 -61 -975 -110 -133 -42 -146 -42 -247 1 -79 34 -98
38 -169 38 -95 -1 -158 -23 -252 -90 -109 -78 -141 -143 -87 -179 15 -9 76
-29 137 -44 l110 -27 -207 -134 -207 -135 5 -39 c6 -48 54 -120 83 -124 24 -4
147 76 381 245 319 231 466 315 622 353 69 17 139 22 365 30 154 5 305 14 335
19 30 6 100 19 155 30 55 11 213 34 350 50 555 68 798 106 1085 167 229 50
266 47 241 -14 -35 -85 -350 -312 -783 -565 -213 -125 -257 -145 -539 -251
-399 -148 -526 -184 -1522 -431 -323 -80 -642 -164 -710 -186 -67 -23 -147
-47 -177 -54 l-55 -12 49 -23 c46 -21 59 -22 180 -17 72 3 255 21 406 41 151
19 329 39 394 45 111 9 126 12 196 49 87 46 192 80 360 117 173 39 324 83 434
127 55 22 145 51 200 64 201 49 229 57 304 94 42 20 97 40 122 44 24 4 117 36
206 71 89 36 169 65 178 65 31 0 87 29 131 68 24 21 99 67 167 102 201 103
206 107 639 490 297 263 433 380 443 380 39 0 -191 -439 -379 -725 -101 -153
-204 -272 -406 -470 -190 -186 -354 -325 -494 -418 -165 -109 -909 -464 -1190
-568 -49 -18 -193 -72 -318 -121 -329 -127 -586 -196 -927 -247 -233 -34 -359
-44 -560 -44 -201 0 -248 6 -420 53 -41 11 -88 19 -105 18 -26 -3 -30 -7 -33
-37 -5 -45 26 -75 102 -101 133 -44 235 -52 736 -59 l475 -6 45 -26 c25 -14
68 -40 95 -57 106 -66 278 -86 755 -86 347 0 447 7 634 45 420 87 836 243
1207 452 152 86 267 142 275 134 10 -10 -35 -85 -98 -163 -83 -104 -353 -372
-485 -482 -239 -199 -468 -319 -813 -425 -273 -85 -811 -226 -920 -241 -450
-63 -1036 -42 -1355 49 -120 34 -310 130 -415 209 -47 35 -150 123 -230 196
-163 148 -251 217 -287 226 -104 26 24 -183 252 -412 171 -171 322 -265 589
-364 136 -51 176 -102 176 -223 0 -43 -5 -53 -47 -98 -133 -143 -415 -244
-713 -256 -155 -6 -254 10 -326 52 -68 40 -94 107 -190 494 -45 185 -101 404
-124 486 -218 786 -301 1278 -287 1700 7 199 27 297 87 422 60 123 185 283
221 283 47 0 49 -123 5 -338 -39 -189 -49 -310 -31 -394 42 -201 223 -431 412
-525 89 -44 155 -53 219 -28 74 28 95 88 35 100 -93 19 -152 41 -211 79 -135
88 -246 222 -289 349 -37 107 -37 152 2 372 20 110 38 221 42 246 10 78 40 97
575 369 223 113 460 240 526 282 145 91 190 115 269 142 66 23 108 70 103 116
-3 25 -4 25 -83 23 -288 -5 -1110 -311 -1548 -576 -188 -114 -250 -181 -349
-382 -171 -344 -207 -665 -127 -1145 12 -69 72 -327 134 -575 62 -247 154
-628 205 -845 85 -367 188 -787 260 -1059 45 -169 144 -670 280 -1419 228
-1253 371 -1955 515 -2532 103 -411 113 -605 51 -922 -12 -65 -20 -120 -18
-123 3 -3 58 -5 122 -5 146 0 147 0 126 -103 -25 -118 -39 -680 -33 -1262 5
-449 11 -584 32 -673 6 -25 25 -21 25 6 0 28 46 118 64 125 28 11 43 -3 81
-74 24 -45 46 -74 66 -84 16 -9 29 -18 29 -21 0 -10 -147 -75 -183 -81 -30 -4
-45 0 -77 21 -46 30 -63 33 -58 9 5 -27 72 -68 205 -127 134 -60 207 -102 198
-115 -6 -10 -57 0 -124 24 -52 18 -127 20 -137 3 -15 -24 96 -74 298 -134 152
-44 204 -43 303 5 37 19 84 48 104 66 20 17 45 35 56 39 11 4 128 11 260 16
662 25 780 32 798 48 24 21 21 31 -10 43 -20 8 -64 8 -157 -1 -77 -7 -132 -8
-137 -3 -6 6 9 22 36 42 26 18 44 35 42 38 -3 2 -65 -5 -138 -16 -74 -11 -168
-22 -209 -25 l-75 -6 70 34 c44 21 65 36 55 39 -62 24 -153 39 -255 44 -121 5
-165 18 -165 47 0 22 34 26 254 26 244 0 315 10 387 53 97 59 96 59 -267 52
-298 -5 -326 -4 -296 9 18 8 35 22 38 30 9 23 37 27 309 36 143 5 277 12 299
16 66 11 20 24 -85 24 -111 0 -161 8 -156 24 7 23 95 67 158 80 52 10 64 16
64 32 0 22 -49 43 -103 43 -24 1 -42 10 -62 31 -25 27 -34 30 -87 30 -32 0
-128 -11 -213 -25 -189 -30 -291 -32 -402 -5 -104 25 -168 26 -168 4 0 -9 11
-29 25 -46 14 -16 25 -37 25 -45 0 -41 -197 37 -272 108 -33 31 -38 42 -38 81
0 77 -66 133 -172 145 -43 5 -50 4 -47 -11 2 -9 38 -42 79 -74 41 -32 75 -64
75 -71 0 -8 -24 -22 -55 -33 -30 -10 -61 -25 -69 -33 -13 -13 -12 -17 4 -35
11 -12 55 -40 99 -63 82 -42 84 -56 8 -38 -31 6 -42 6 -42 -3 0 -6 50 -61 111
-121 156 -156 182 -205 107 -205 -49 0 -130 42 -221 115 -44 35 -99 71 -121
78 -75 25 -81 43 -84 255 -4 175 10 510 24 616 4 29 12 46 20 46 8 0 42 -29
77 -64 60 -62 101 -84 132 -72 28 10 15 43 -46 122 -91 117 -126 202 -100 243
10 15 18 4 67 -89 21 -40 39 -60 67 -73 37 -18 39 -18 132 2 162 36 206 23
129 -36 -85 -65 -105 -86 -102 -107 2 -14 11 -22 28 -24 54 -6 81 -25 105 -71
27 -53 64 -90 120 -120 l40 -21 -40 6 c-22 3 -82 17 -133 30 -121 31 -123 31
-116 -5 6 -27 4 -29 -35 -36 -23 -4 -41 -11 -41 -16 0 -14 138 -108 220 -149
105 -52 174 -73 216 -65 28 5 38 2 52 -15 40 -50 403 -50 444 -1 14 18 23 20
64 14 39 -5 49 -3 60 12 21 29 17 54 -15 86 -22 21 -39 29 -66 29 -46 0 -95
25 -95 49 0 41 61 71 215 105 156 34 185 62 92 87 -55 14 -265 15 -309 0 -19
-6 -46 -23 -58 -36 -13 -14 -30 -25 -37 -25 -13 0 -73 84 -73 102 0 30 192 70
444 93 200 18 331 38 381 59 41 18 58 43 89 134 51 149 136 272 188 272 28 0
38 -16 38 -61 0 -28 40 -79 61 -79 25 0 118 -43 123 -57 17 -42 -93 -100 -213
-112 -42 -5 -92 -15 -111 -23 -72 -31 -92 -88 -30 -88 49 0 35 -18 -40 -51
-38 -18 -70 -36 -70 -42 0 -17 148 0 245 28 90 26 175 68 175 85 0 21 63 42
109 37 59 -7 71 -25 71 -109 0 -83 -16 -103 -87 -113 -26 -4 -69 -16 -94 -27
-50 -21 -108 -73 -95 -85 4 -4 55 5 114 21 147 39 163 41 173 25 5 -8 9 -44 9
-81 0 -83 -18 -108 -78 -108 -63 0 -124 27 -203 90 -47 38 -88 62 -113 67
l-38 8 61 48 c68 52 79 82 35 93 -30 8 -237 -19 -331 -43 -66 -16 -105 -45
-86 -64 6 -6 51 -16 100 -21 85 -10 123 -26 123 -53 0 -20 45 -54 93 -71 53
-18 57 -28 24 -54 -12 -10 -18 -22 -14 -26 4 -5 72 -11 150 -14 l142 -5 -100
-42 c-164 -68 -209 -75 -299 -48 -62 19 -140 20 -155 1 -17 -20 -91 -36 -190
-42 -113 -7 -137 -12 -123 -26 7 -7 73 -13 172 -16 88 -3 160 -8 160 -12 0 -4
-16 -22 -35 -39 -29 -25 -45 -31 -80 -31 -43 0 -45 -1 -45 -30 0 -43 25 -51
177 -60 149 -9 182 -21 143 -52 -12 -10 -33 -18 -46 -18 -13 0 -29 -7 -36 -16
-35 -43 -50 -54 -69 -54 -39 0 -119 -58 -119 -87 0 -20 57 -16 106 9 40 19 48
20 96 9 60 -14 241 -100 246 -118 2 -6 -14 -14 -36 -18 -52 -8 -100 -39 -113
-72 -11 -31 4 -119 26 -149 13 -18 15 -18 45 -1 18 9 53 17 80 17 27 0 52 5
55 11 4 5 10 31 13 57 l7 47 71 5 c77 5 82 8 164 86 68 66 115 87 161 74 40
-12 45 -8 31 27 -6 15 -16 55 -22 88 -16 91 -34 395 -26 438 6 33 9 36 27 27
26 -15 120 -211 165 -344 31 -93 36 -123 35 -195 l0 -84 29 28 c39 37 71 115
78 193 9 87 17 91 129 68 48 -9 104 -25 123 -34 34 -17 35 -18 32 -72 -2 -39
4 -79 23 -137 14 -46 27 -83 29 -83 2 0 1 45 -2 100 l-5 100 36 33 c38 36 208
137 276 164 66 26 74 12 82 -150 6 -135 20 -190 42 -168 15 16 14 153 -3 251
-16 94 -35 148 -62 177 -29 31 -12 29 79 -7 82 -33 124 -38 143 -15 19 22 6
53 -55 134 -31 41 -71 104 -89 140 -117 231 -236 583 -236 695 0 48 0 48 29
43 46 -9 47 17 3 66 -42 46 -91 125 -142 227 -64 127 -122 195 -205 237 -27
14 -64 40 -81 58 -31 34 -59 45 -184 71 -86 18 -264 34 -373 34 -88 0 -108 12
-44 25 95 20 193 109 249 224 29 58 32 75 31 146 0 44 -4 110 -8 146 -11 100
18 144 105 158 68 12 69 66 3 236 -91 235 -78 428 32 475 75 32 80 46 83 272
l4 198 29 25 c34 28 77 41 196 61 46 7 103 22 128 33 37 16 45 25 45 46 0 23
-9 31 -71 59 l-71 33 75 5 c84 5 152 37 176 81 31 58 -15 81 -188 96 -200 18
-379 63 -685 174 -165 61 -166 54 4 78 161 22 146 30 -110 54 -445 43 -752 27
-988 -52 -206 -69 -501 -258 -648 -416 -57 -60 -64 -72 -84 -151 -53 -198 -79
-125 -135 379 -45 404 -89 753 -121 965 -50 331 -64 457 -65 570 -1 128 2 141
43 188 44 52 34 112 -18 112 -39 0 -73 40 -88 105 -8 33 -24 137 -36 230 -12
94 -39 285 -60 425 -21 140 -43 299 -49 352 -12 108 -14 300 -5 371 l6 45 282
-1 c307 -1 456 12 827 73 355 59 792 164 1034 250 520 184 1073 574 1300 915
111 166 227 429 259 588 17 83 14 114 -16 165 -31 51 -55 43 -163 -52 -102
-90 -191 -142 -307 -182 -222 -75 -493 -77 -739 -4 -71 21 -103 47 -93 74 9
22 103 88 246 170 357 205 803 586 1027 879 163 212 412 660 489 879 40 112
67 165 92 178 17 9 19 17 14 48 -4 29 0 49 17 82 20 38 24 60 24 137 0 59 -4
96 -12 104 -12 12 -64 23 -178 34 -56 6 -63 5 -100 -24z m-4780 -931 c-25 -28
-136 -92 -320 -185 -272 -137 -461 -213 -369 -148 74 53 414 233 584 309 108
49 133 54 105 24z m974 -71 c54 -11 102 -42 88 -56 -25 -24 -207 12 -207 41 0
29 35 33 119 15z m2116 -1624 c125 -60 211 -88 338 -108 48 -8 90 -16 92 -19
8 -7 -244 -40 -318 -41 -96 -1 -117 11 -117 68 0 47 -7 52 -100 70 -71 14
-112 53 -88 82 18 22 69 9 193 -52z m15 -474 c0 -10 -97 -61 -117 -61 -24 0
-14 39 15 54 30 17 102 21 102 7z m-1570 -13 c0 -7 -12 -25 -27 -40 -40 -42
-22 -51 67 -37 106 16 170 9 220 -26 44 -30 89 -37 143 -22 36 10 33 -8 -6
-37 -38 -28 -141 -33 -267 -11 -168 28 -350 88 -350 115 0 16 49 43 103 56 68
16 117 17 117 2z m1267 -34 c22 -57 -89 -100 -387 -149 -162 -26 -315 -34
-333 -16 -42 42 218 111 314 82 51 -15 80 -9 204 44 129 55 124 53 163 54 21
1 35 -5 39 -15z m-2200 -1782 c22 -14 43 -93 59 -221 8 -69 22 -172 30 -229
30 -214 13 -247 -85 -171 -24 19 -71 26 -71 11 0 -30 153 -178 357 -348 l23
-19 -100 -130 c-104 -136 -160 -228 -160 -264 0 -34 16 -25 62 37 31 40 52 58
70 60 31 4 34 -3 43 -108 10 -113 38 -297 104 -690 68 -406 146 -918 226
-1495 66 -478 79 -552 110 -673 47 -179 101 -254 223 -316 89 -45 132 -87 132
-129 0 -47 -9 -53 -71 -53 -49 0 -72 -8 -210 -76 -247 -123 -557 -226 -764
-253 -71 -9 -138 -25 -179 -41 -54 -23 -68 -25 -81 -14 -21 17 -13 57 37 184
69 175 66 213 -53 632 -97 344 -143 535 -184 769 -19 110 -46 259 -59 330 -14
72 -41 239 -60 371 -20 133 -45 288 -56 345 -11 57 -31 163 -44 234 -14 72
-34 209 -46 305 -11 96 -30 252 -41 345 -28 226 -76 520 -143 863 -93 474 -99
515 -80 529 23 17 70 21 294 28 110 3 224 11 262 19 66 15 96 26 318 125 126
56 120 54 137 43z m1350 -2732 c-7 -29 13 -40 87 -47 109 -10 76 -43 -60 -59
-40 -5 -54 -3 -67 11 -33 32 -15 115 25 115 15 0 19 -5 15 -20z m-379 -303 c7
-8 9 -29 5 -49 -4 -30 -2 -39 16 -50 29 -18 26 -28 -9 -28 -59 0 -90 67 -54
118 17 25 27 27 42 9z m1803 -255 c35 -29 19 -56 -28 -49 -40 7 -79 39 -69 56
11 17 72 13 97 -7z m-976 -42 c180 -14 268 -27 350 -53 104 -32 254 -30 351 7
39 14 76 26 82 26 6 0 27 -11 47 -24 20 -14 60 -32 89 -40 58 -17 92 -46 82
-72 -5 -14 -15 -15 -69 -8 -34 4 -80 8 -102 8 -44 1 -46 -4 -30 -86 7 -37 7
-38 -22 -38 -16 0 -83 16 -149 36 -131 39 -265 55 -302 35 -19 -10 -21 -17
-16 -52 6 -35 3 -44 -21 -69 -23 -24 -27 -35 -23 -67 7 -53 38 -113 71 -137
23 -17 46 -21 145 -24 82 -3 126 -1 142 8 21 12 22 16 17 86 -8 90 2 104 73
104 58 0 70 -13 41 -44 -44 -46 -46 -76 -12 -193 39 -139 51 -216 51 -330 0
-107 -7 -118 -76 -129 -78 -11 -168 1 -220 30 -25 14 -50 26 -55 26 -4 0 -19
-12 -33 -26 -32 -35 -55 -30 -219 47 -71 33 -159 67 -195 76 -90 21 -112 32
-139 72 -38 56 -45 97 -54 341 -5 129 -15 297 -22 373 l-13 138 51 -6 c27 -3
109 -10 180 -15z m-664 -92 c10 -19 8 -25 -14 -44 -27 -23 -125 -64 -153 -64
-20 0 -13 21 19 60 55 68 125 91 148 48z m-418 -114 c6 -6 -19 -64 -27 -64 -3
0 -12 -3 -21 -6 -15 -6 -14 -1 4 35 21 40 31 48 44 35z m445 -26 c22 -22 14
-84 -14 -118 -22 -26 -90 -70 -109 -70 -21 0 29 131 66 171 30 32 39 35 57 17z
m202 -251 c0 -20 -22 -37 -47 -37 -25 0 -30 19 -11 38 16 16 58 15 58 -1z
m-310 -83 c14 -35 13 -117 -2 -148 -16 -36 -46 -43 -71 -17 -15 14 -22 37 -25
80 -4 54 -2 62 21 85 34 34 65 34 77 0z m146 -236 c5 -7 11 -130 15 -273 5
-177 12 -281 23 -324 8 -36 13 -68 10 -72 -3 -5 -17 -6 -32 -3 -38 7 -67 -16
-59 -47 17 -66 238 -232 268 -202 6 6 5 21 -2 42 -6 17 -9 35 -5 38 9 9 132
-75 170 -117 37 -41 41 -51 51 -122 4 -30 16 -60 32 -78 23 -27 25 -37 20 -84
-3 -33 -1 -58 6 -65 22 -22 77 -11 164 34 48 25 95 45 106 45 21 0 47 -54 47
-100 0 -45 -26 -99 -52 -109 -13 -5 -82 -19 -154 -31 -163 -27 -175 -24 -322
73 -103 68 -133 85 -224 121 -47 18 -68 60 -103 195 -37 146 -52 181 -80 181
-26 0 -73 43 -81 76 -7 29 6 53 67 120 56 61 69 89 69 140 0 46 -19 81 -86
156 -72 81 -101 132 -115 199 -19 94 -3 113 148 180 97 42 108 45 119 27z
m-349 -870 c44 -66 39 -116 -20 -201 -47 -69 -55 -91 -37 -102 25 -15 9 -54
-41 -99 -73 -65 -80 -63 -53 18 18 51 12 71 -11 40 -17 -22 -45 -108 -45 -139
0 -31 -37 -75 -76 -91 -43 -18 -154 -18 -223 1 -30 8 -98 35 -151 61 -54 25
-104 44 -111 42 -18 -6 75 -95 149 -145 30 -19 72 -40 94 -46 21 -5 47 -20 57
-33 11 -14 30 -24 43 -24 42 0 127 51 203 121 108 100 175 128 220 95 18 -13
18 -16 -18 -59 -50 -62 -98 -97 -192 -145 -133 -66 -246 -91 -259 -56 -5 12
-15 14 -49 9 -57 -9 -116 16 -239 101 -86 60 -128 78 -128 54 0 -5 12 -17 28
-27 40 -26 43 -33 37 -87 -7 -55 -28 -112 -51 -137 -55 -61 -95 103 -74 304
19 190 73 357 125 391 12 8 120 37 241 66 120 28 291 68 379 90 88 21 163 39
167 39 4 1 20 -18 35 -41z m1413 -150 c-1 -30 -47 -62 -74 -52 -16 6 -22 45
-9 57 12 13 83 8 83 -5z m334 -112 c34 -22 28 -42 -10 -38 -16 1 -72 3 -124 4
-81 2 -101 -1 -136 -19 -59 -31 -68 -46 -68 -117 -1 -51 -6 -70 -29 -104 -33
-50 -51 -53 -66 -11 -17 50 -13 80 15 106 22 20 25 30 21 59 -11 68 24 99 145
130 74 19 217 13 252 -10z m-1555 -77 c15 -25 3 -43 -25 -37 -20 3 -29 29 -20
53 7 19 28 11 45 -16z m1827 -30 c112 -34 149 -61 205 -149 49 -76 70 -96 91
-84 18 11 25 -16 17 -62 -6 -30 -4 -70 6 -121 14 -72 34 -134 139 -427 26 -71
43 -132 39 -136 -14 -12 -150 -42 -174 -38 -21 3 -19 6 19 26 23 12 42 29 42
36 0 16 -82 69 -122 79 -16 4 -44 1 -70 -9 -98 -35 -108 -38 -120 -26 -11 11
-9 15 59 117 24 35 31 54 26 75 -4 24 4 38 56 93 66 72 83 110 58 134 -12 12
-24 13 -60 6 -48 -11 -77 -2 -77 22 0 24 -24 17 -71 -18 -73 -56 -90 -63 -106
-41 -7 10 -13 35 -13 56 0 52 -16 56 -95 24 -81 -32 -95 -33 -65 -1 34 36 100
65 149 65 35 0 48 6 84 41 27 26 35 38 22 34 -38 -12 -40 -10 -36 30 9 98 7
110 -17 113 -14 2 -47 -10 -80 -31 -95 -58 -235 -88 -248 -53 -11 29 110 179
190 238 47 34 63 34 152 7z m-1596 -200 c44 -22 140 -114 140 -133 0 -19 -75
-31 -127 -21 -83 15 -133 59 -133 116 0 28 6 42 22 53 24 17 42 14 98 -15z
m1160 -38 c0 -11 -103 -91 -109 -85 -7 7 82 94 96 94 7 0 13 -4 13 -9z m-1246
-113 c19 -27 5 -48 -31 -48 -29 0 -39 21 -23 49 14 27 35 27 54 -1z m1179 -55
c17 -9 27 -21 25 -31 -8 -43 -205 -41 -222 3 -17 46 123 66 197 28z m-1623
-12 c0 -22 -35 -51 -62 -51 -26 0 -23 36 4 54 31 22 58 20 58 -3z m735 4 c40
-16 51 -36 37 -62 -9 -16 -25 -18 -114 -18 -90 0 -109 -3 -153 -25 -35 -18
-51 -32 -55 -50 -8 -35 -61 -58 -164 -72 -62 -8 -89 -9 -97 -1 -8 8 -4 16 15
28 14 10 26 23 26 30 0 7 -24 28 -52 46 l-53 33 60 8 c187 24 229 32 320 63
109 37 176 43 230 20z m-1169 -126 c27 -25 31 -57 9 -65 -40 -16 -134 48 -121
82 9 23 80 13 112 -17z m2152 -26 c4 -30 -42 -79 -93 -98 -114 -44 -91 45 27
104 49 24 62 23 66 -6z m-778 -80 c31 -40 37 -73 15 -90 -26 -18 -33 -17 -66
16 -25 26 -29 37 -29 86 l0 56 30 -21 c16 -11 38 -33 50 -47z m1110 60 c0 -3
-45 -52 -100 -108 -62 -64 -101 -114 -105 -131 -13 -63 -44 -80 -85 -46 -22
18 -23 22 -11 51 17 40 116 132 210 193 71 46 91 55 91 41z m-1498 -80 c39
-35 14 -71 -72 -104 -90 -34 -318 -61 -364 -43 -19 7 -22 69 -5 80 7 4 37 8
68 9 31 2 99 17 151 33 149 48 192 53 222 25z m-737 -93 c7 -11 -69 -68 -102
-76 -32 -8 -39 1 -25 31 18 39 110 72 127 45z m241 -101 c9 -17 16 -51 17 -76
0 -38 -5 -49 -36 -81 -21 -21 -37 -41 -37 -44 0 -4 17 -12 38 -19 52 -16 92
-41 92 -56 0 -15 11 -16 93 -13 56 2 59 1 55 -22 -2 -17 -19 -31 -63 -53 -47
-23 -61 -36 -65 -57 -4 -22 -8 -25 -20 -18 -8 6 -48 7 -91 4 -87 -7 -143 6
-160 39 -10 17 -8 23 8 37 24 19 43 53 43 75 0 35 -34 87 -76 116 -24 16 -44
36 -44 44 0 27 175 155 212 155 10 0 25 -14 34 -31z m1809 -163 c54 -23 71
-76 25 -76 -29 0 -85 53 -77 73 8 21 9 21 52 3z m365 -95 l24 -7 -31 -22 c-45
-32 -97 -52 -135 -52 -56 0 -100 45 -66 66 7 5 44 11 83 15 92 8 96 8 125 0z
m459 -45 c6 -7 9 -21 5 -29 -15 -39 -184 -117 -253 -117 -75 0 -38 46 96 117
80 44 132 54 152 29z m-501 -126 c37 -23 42 -47 9 -55 -40 -10 -117 30 -117
62 0 20 70 16 108 -7z m562 -38 c0 -58 -53 -92 -145 -92 -60 0 -113 -18 -120
-40 -12 -39 -98 -38 -110 0 -7 23 -35 26 -73 6 -15 -7 -38 -17 -52 -21 -23 -7
-24 -6 -11 9 24 28 83 54 152 66 65 11 173 43 264 79 73 29 95 27 95 -7z
m-1078 -14 c9 -17 13 -77 13 -218 0 -230 -10 -274 -75 -315 -47 -30 -90 -42
-90 -25 0 6 16 31 35 54 40 50 43 68 14 97 -17 17 -20 29 -15 62 5 32 2 49
-14 72 -28 42 -26 112 6 204 14 42 28 79 31 84 2 4 22 7 43 7 30 0 42 -5 52
-22z m-463 -87 c11 -7 4 -14 -27 -30 -52 -27 -84 -27 -108 0 -16 17 -16 22 -4
29 19 12 121 13 139 1z m-679 -81 c0 -5 -25 -10 -55 -10 -30 0 -55 5 -55 10 0
6 25 10 55 10 30 0 55 -4 55 -10z m-1115 -514 c44 -18 145 -62 225 -97 l145
-64 -47 -3 c-113 -7 -468 131 -468 183 0 25 58 18 145 -19z"/>
<path d="M2474 2666 c-51 -34 -114 -99 -114 -116 0 -38 116 23 170 88 57 69
27 84 -56 28z"/>
<path d="M1462 11518 c-17 -29 -89 -117 -161 -196 -166 -182 -196 -237 -196
-362 0 -123 28 -159 143 -186 74 -18 256 -19 270 -1 6 8 6 38 0 87 -6 41 -8
145 -5 230 5 155 13 196 55 280 38 78 10 191 -50 198 -21 3 -30 -5 -56 -50z
m-63 -443 c1 -222 -2 -230 -78 -230 -47 1 -57 5 -82 33 -38 42 -45 89 -24 155
20 63 95 189 138 235 32 33 32 33 39 10 3 -13 6 -104 7 -203z"/>
<path d="M3907 1832 c-22 -24 -21 -39 2 -47 20 -6 65 8 75 23 23 37 -47 58
-77 24z"/>
<path d="M3400 1171 c0 -12 45 -22 64 -15 29 11 16 24 -24 24 -22 0 -40 -4
-40 -9z"/>
<path d="M5325 746 c-9 -48 0 -154 16 -190 17 -36 43 -30 47 11 3 30 -30 170
-48 203 -6 10 -10 3 -15 -24z"/>
<path d="M4866 654 c-11 -62 18 -120 43 -90 14 17 1 79 -23 111 -13 18 -14 16
-20 -21z"/>
<path d="M5173 593 c2 -43 9 -69 22 -83 19 -21 45 -27 45 -10 0 18 -40 116
-56 136 -14 18 -15 14 -11 -43z"/>
<path d="M1676 217 c-16 -61 3 -160 34 -177 13 -7 24 -5 39 8 l21 17 -44 87
c-36 72 -45 84 -50 65z"/>
</g>
</svg>
