<?xml version="1.0" standalone="no"?>
<!DOCTYPE svg PUBLIC "-//W3C//DTD SVG 20010904//EN"
 "http://www.w3.org/TR/2001/REC-SVG-20010904/DTD/svg10.dtd">
<svg version="1.0" xmlns="http://www.w3.org/2000/svg"
 width="988.000000pt" height="1140.000000pt" viewBox="0 0 988.000000 1140.000000"
 preserveAspectRatio="xMidYMid meet">

<g transform="translate(0.000000,1140.000000) scale(0.100000,-0.100000)"
fill="#000000" stroke="#ffffff">
<path d="M0 11118 c0 -205 4 -306 15 -368 35 -199 46 -345 52 -640 5 -277 -7
-631 -24 -697 -8 -33 -27 -28 -20 5 3 15 -1 41 -8 57 -13 28 -13 26 -14 -46
-1 -43 4 -80 10 -86 8 -8 8 -28 0 -75 -6 -36 -11 -160 -11 -276 0 -175 2 -210
14 -206 21 8 26 -26 31 -206 5 -175 0 -169 -30 40 -12 87 -13 54 -11 -370 2
-435 4 -469 23 -535 11 -38 23 -92 26 -118 l5 -49 -29 28 -29 28 0 -174 c0
-169 1 -174 28 -229 26 -54 27 -62 25 -201 -1 -94 -7 -173 -18 -225 -28 -128
-33 -625 -34 -3112 -1 -1929 1 -2273 13 -2273 7 0 16 10 20 22 9 35 7 108 -3
108 -15 0 -25 105 -12 127 10 17 10 17 11 -4 0 -51 29 -71 49 -35 8 12 10 -6
11 -70 0 -83 9 -109 25 -70 4 9 11 63 15 119 5 57 13 110 19 120 20 36 24 -65
18 -476 -6 -433 -17 -604 -41 -662 -21 -50 -24 -129 -6 -129 16 0 30 45 52
165 19 107 40 165 57 165 19 0 31 -68 37 -194 3 -72 8 -138 10 -146 3 -9 20 9
44 48 22 34 44 62 49 62 12 0 38 85 97 315 44 173 70 245 87 245 5 0 7 -7 3
-15 -3 -8 -26 -113 -51 -232 -54 -259 -98 -432 -130 -513 -30 -77 -40 -120
-26 -120 6 0 20 19 32 42 29 59 48 78 76 78 23 0 24 -3 21 -47 -4 -53 12 -67
31 -26 31 68 38 78 54 77 14 -2 17 7 17 46 0 67 56 178 107 211 29 18 48 45
80 108 62 126 104 261 194 636 132 554 153 620 264 840 128 253 207 390 266
463 27 34 49 64 49 68 0 3 -14 4 -30 1 -21 -5 -30 -3 -30 7 0 7 22 77 50 154
90 256 116 395 126 677 7 168 2 245 -16 245 -10 0 -23 -62 -45 -225 -16 -121
-36 -212 -57 -263 -11 -27 -11 -27 -19 18 -17 101 -10 193 26 336 38 151 42
178 22 172 -28 -10 -51 -85 -147 -493 -33 -143 -48 -187 -60 -180 -5 3 -18 36
-31 73 -22 68 -35 92 -50 92 -4 0 -32 -39 -61 -87 l-53 -86 -6 69 c-7 79 -22
124 -42 124 -8 0 -35 -16 -61 -36 -25 -21 -49 -35 -52 -32 -3 3 50 142 117
309 138 346 255 651 290 754 l23 70 12 -123 c6 -67 17 -129 24 -137 7 -9 29
-15 52 -15 57 0 113 -16 303 -86 284 -104 554 -182 730 -209 l40 -6 225 217
225 217 3 -119 c4 -170 1 -177 -135 -311 -63 -62 -149 -138 -190 -170 l-74
-57 -77 13 c-333 55 -484 95 -664 181 -59 27 -181 75 -271 105 -172 57 -252
72 -252 45 0 -11 58 -34 195 -81 107 -36 256 -91 330 -121 169 -70 317 -115
554 -169 l185 -41 158 134 c218 184 242 203 255 190 5 -5 19 -43 30 -84 10
-40 39 -120 64 -177 24 -57 44 -114 44 -127 0 -33 -86 -246 -180 -444 -102
-216 -328 -782 -437 -1095 -67 -191 -89 -210 -201 -176 -37 11 -133 49 -212
84 -184 82 -256 105 -272 89 -10 -10 1 -26 49 -75 33 -34 102 -116 153 -182
206 -266 344 -411 468 -492 196 -129 704 -338 941 -388 156 -33 571 -47 606
-21 35 25 10 63 -70 108 -73 41 -105 70 -105 96 0 12 9 14 51 9 63 -8 141 8
171 34 l23 19 -29 24 c-16 14 -76 50 -133 82 -57 32 -103 63 -103 70 0 23 103
104 176 139 84 40 95 51 60 65 -37 14 -215 46 -416 75 -96 14 -229 37 -295 50
-185 38 -497 123 -517 142 -41 37 -21 117 87 353 32 69 81 184 111 255 29 72
122 294 207 495 85 201 167 399 182 441 l28 76 156 6 c252 11 544 68 736 144
205 81 875 424 1111 569 202 123 312 154 549 154 79 0 154 -4 167 -9 13 -5 55
-38 93 -75 67 -63 100 -85 112 -72 3 3 -8 21 -26 41 -36 41 -40 52 -11 32 32
-22 81 -90 87 -119 6 -30 38 -39 60 -17 15 15 38 2 283 -154 366 -234 464
-275 670 -284 197 -8 894 46 973 76 15 6 87 22 160 37 158 31 340 76 421 104
l60 20 71 -73 c112 -116 249 -199 414 -251 78 -25 227 -49 244 -39 4 2 7 17 7
33 0 28 -1 28 -117 55 -125 29 -265 82 -369 140 -104 58 -203 170 -187 212 3
7 -11 31 -30 52 -42 47 -50 86 -51 244 -1 106 0 109 26 132 16 13 28 27 28 30
0 3 -27 5 -60 5 -51 0 -61 -3 -72 -23 -20 -36 -22 -185 -4 -290 9 -52 16 -111
16 -130 0 -33 -3 -37 -38 -46 -21 -6 -102 -20 -181 -32 -159 -23 -181 -29
-210 -58 -37 -37 -203 -76 -491 -117 -71 -10 -223 -18 -400 -21 -242 -5 -294
-3 -348 11 -158 40 -645 325 -816 476 -38 34 -79 66 -93 71 -13 5 -55 29 -93
54 -38 25 -80 49 -94 55 -46 17 -190 22 -301 11 -177 -19 -334 -82 -593 -235
-125 -74 -225 -126 -302 -156 -102 -40 -315 -148 -393 -199 -142 -94 -289
-156 -515 -220 -281 -79 -484 -92 -607 -39 -33 15 -82 29 -108 32 -98 12 -239
112 -285 203 -28 54 -59 177 -73 282 -10 75 -8 102 11 215 25 150 60 277 94
345 49 96 269 365 407 497 114 110 383 295 956 658 307 196 966 626 1248 816
88 59 189 123 225 141 62 32 70 33 165 33 85 -1 143 -11 387 -66 305 -70 364
-91 443 -157 28 -23 75 -56 105 -73 109 -63 273 -242 332 -363 14 -27 32 -90
42 -138 l17 -88 -27 -48 c-80 -148 -357 -450 -464 -507 -37 -19 -60 -40 -70
-61 -8 -17 -27 -38 -41 -47 -34 -20 -217 -193 -229 -217 -8 -14 -5 -24 12 -42
13 -14 44 -63 71 -110 77 -140 155 -202 317 -256 195 -64 416 -85 580 -57 181
32 399 110 735 266 236 109 352 155 431 169 42 8 64 18 79 36 11 14 66 44 122
69 166 71 333 185 333 227 0 17 -82 88 -102 89 -5 0 -8 -18 -8 -41 0 -32 4
-42 20 -46 28 -8 25 -17 -18 -52 -49 -41 -161 -99 -300 -154 l-113 -46 -74 85
c-246 282 -268 439 -107 761 47 92 98 157 118 149 9 -3 14 2 14 15 0 87 292
409 371 409 10 0 26 11 35 25 21 32 197 120 279 140 33 8 125 19 204 25 79 6
147 13 152 16 11 6 12 124 2 124 -30 -1 -163 -23 -233 -40 -47 -10 -125 -22
-175 -26 -82 -7 -87 -8 -58 -18 47 -16 47 -22 3 -35 -102 -30 -511 -297 -525
-342 -3 -10 -20 -21 -38 -24 -48 -11 -57 -23 -57 -74 0 -51 -10 -71 -90 -176
-67 -88 -124 -208 -150 -316 -24 -100 -27 -274 -6 -362 16 -70 38 -101 166
-242 l100 -110 -27 -12 c-16 -7 -109 -49 -208 -93 -502 -227 -616 -270 -742
-278 -82 -4 -103 -14 -62 -27 24 -8 15 -20 -22 -29 -19 -4 -33 0 -50 15 -28
24 -54 21 -54 -6 0 -19 -7 -20 -116 -19 -176 2 -366 48 -524 126 -100 50 -135
94 -135 168 0 54 13 76 59 99 20 11 57 36 82 57 24 20 95 70 157 111 120 79
289 232 315 285 14 28 14 36 1 66 -17 42 -9 61 71 152 31 36 65 81 75 100 22
42 81 113 338 407 218 250 302 352 302 369 0 7 -11 15 -25 18 -20 5 -25 12
-23 34 1 15 -6 40 -16 55 -10 15 -16 30 -13 34 25 24 -118 147 -265 227 -197
107 -554 246 -631 246 -34 0 -56 10 -125 58 -83 57 -85 57 -156 57 -88 -1
-131 -18 -373 -148 -223 -119 -259 -132 -327 -116 -143 33 -151 47 -150 234 0
104 9 179 42 375 58 342 72 457 73 595 0 137 -16 211 -63 295 -80 142 -80 141
-73 205 4 33 29 175 57 315 27 140 52 290 55 332 8 106 -8 144 -105 246 l-77
82 -116 -14 c-191 -23 -431 -95 -675 -201 -65 -28 -124 -48 -146 -48 -27 0
-38 -4 -41 -18 -4 -14 -14 -19 -36 -19 -19 0 -34 -6 -38 -16 -3 -8 -24 -24
-47 -35 -46 -21 -219 -162 -307 -249 -90 -90 -199 -299 -274 -524 -69 -207
-85 -392 -39 -463 81 -126 130 -178 213 -221 89 -48 130 -54 398 -62 165 -4
257 -11 266 -18 16 -14 27 -6 27 18 0 10 7 23 15 30 17 14 35 8 93 -34 18 -14
40 -22 51 -19 14 3 33 -8 63 -37 41 -40 37 -46 -7 -11 -53 42 49 -59 112 -110
85 -70 88 -77 103 -263 21 -260 15 -302 -65 -519 -99 -264 -184 -403 -312
-508 -82 -67 -227 -168 -344 -237 -47 -28 -175 -110 -285 -183 -109 -73 -302
-197 -428 -276 -277 -174 -380 -245 -544 -376 -233 -185 -287 -241 -457 -463
-251 -327 -495 -611 -608 -708 -51 -43 -58 -46 -112 -46 -137 0 -462 86 -685
180 -79 34 -192 75 -252 93 l-109 32 6 80 c25 334 47 390 179 450 83 38 127
82 241 235 124 167 245 308 245 286 0 -39 -216 -346 -382 -544 -75 -88 -78
-94 -72 -131 5 -33 -1 -53 -54 -153 -69 -132 -91 -193 -75 -209 8 -8 24 1 58
32 33 31 59 70 95 143 64 134 134 231 250 346 84 84 136 127 283 234 20 15 37
35 37 45 0 40 284 278 523 440 85 57 103 63 92 29 -3 -13 -9 -34 -12 -47 -5
-21 -4 -22 15 -12 32 17 72 75 72 104 0 21 6 28 27 33 15 4 36 18 46 31 11 13
63 57 116 97 246 188 363 368 490 760 112 344 161 612 205 1136 51 594 44 896
-26 1110 -45 141 -161 353 -245 452 -26 31 -77 110 -112 175 -35 65 -88 153
-119 196 -104 145 -283 297 -449 380 -28 15 -116 49 -195 75 -78 27 -177 63
-218 80 -94 37 -236 72 -455 112 -93 16 -195 37 -224 46 -80 23 -168 70 -176
94 -5 16 -15 20 -53 20 -77 0 -82 -12 -22 -59 29 -23 72 -55 96 -73 46 -33 60
-56 45 -71 -30 -30 -167 67 -331 233 -122 123 -187 206 -313 400 -99 150 -106
132 -35 -80 43 -130 46 -150 20 -150 -21 0 -86 44 -117 80 -26 29 -68 50 -99
50 -36 0 -45 41 -20 87 11 19 28 52 39 72 11 20 39 61 62 91 40 54 225 355
264 431 l19 39 -102 0 -103 0 -27 -43 c-14 -23 -32 -62 -38 -87 -7 -24 -25
-70 -41 -102 -16 -32 -29 -65 -29 -74 0 -29 29 4 65 75 35 71 69 109 79 92 18
-28 -135 -276 -208 -337 -25 -21 -49 -47 -52 -59 -4 -11 -24 -40 -45 -64 -35
-39 -83 -140 -73 -150 3 -3 18 11 34 30 16 19 29 29 30 24 0 -6 -18 -69 -39
-140 -66 -221 -91 -354 -116 -615 -9 -91 -25 -210 -36 -264 -11 -55 -18 -111
-16 -125 l3 -26 13 30 c7 17 23 77 36 135 23 99 30 145 70 448 33 244 95 451
141 469 27 10 49 -26 67 -112 19 -83 13 -105 -24 -105 -11 0 -19 -6 -19 -12 0
-7 36 -89 81 -181 45 -92 78 -171 74 -175 -10 -10 -139 130 -171 184 -26 44
-49 55 -71 33 -7 -7 -9 -25 -6 -41 4 -20 0 -35 -13 -49 -18 -20 -18 -22 3 -82
12 -34 24 -79 28 -100 3 -20 19 -52 34 -70 40 -45 51 -70 51 -112 0 -28 5 -38
25 -47 14 -6 25 -15 25 -20 0 -15 -31 -8 -76 18 l-45 27 -20 -22 c-11 -11 -26
-21 -34 -21 -26 0 -16 -28 19 -55 44 -34 86 -95 86 -126 0 -19 -9 -30 -37 -44
-56 -27 -19 -31 70 -6 81 23 159 26 256 11 60 -10 66 -9 115 16 42 23 67 28
143 32 124 6 143 0 143 -41 0 -48 -24 -191 -81 -486 -41 -209 -49 -265 -39
-271 17 -10 9 -203 -20 -490 -25 -251 -28 -270 -42 -270 -7 0 -22 -10 -35 -22
-13 -12 -25 -19 -28 -17 -5 6 21 267 34 342 5 26 5 50 0 52 -10 7 -24 -62 -54
-275 -29 -206 -52 -317 -67 -326 -16 -10 -4 103 42 376 59 355 76 469 114 775
45 360 49 409 41 445 -8 35 -17 36 -93 11 -104 -35 -477 -89 -657 -95 -82 -3
-89 -5 -97 -26 -5 -12 -15 -156 -23 -319 -9 -163 -22 -345 -30 -406 -7 -60
-17 -141 -20 -180 -6 -62 -5 -68 9 -56 27 22 39 3 34 -59 -2 -35 -12 -69 -24
-86 l-19 -29 -5 55 c-5 51 -6 53 -17 30 -7 -14 -17 -44 -23 -67 -13 -53 -32
-63 -114 -63 -58 0 -68 -3 -91 -28 -43 -46 -47 -24 -40 238 4 129 11 474 15
765 8 526 21 722 52 798 8 21 8 33 -1 50 -7 12 -13 71 -14 132 -2 126 22 1092
32 1268 l6 117 -102 0 -103 0 0 -282z m879 -520 c30 -31 49 -73 38 -84 -17
-18 -87 62 -87 100 0 24 14 20 49 -16z m221 -222 c0 -23 -14 -20 -50 10 -36
31 -64 80 -54 96 9 14 104 -84 104 -106z m89 -142 c96 -72 128 -122 70 -110
-42 8 -83 39 -124 93 -60 79 -38 86 54 17z m-169 -93 c5 -11 25 -24 44 -31 39
-13 51 -33 36 -61 -13 -24 -42 -25 -62 -1 -21 24 -48 78 -48 97 0 21 17 19 30
-4z m1128 -32 l54 -22 -104 -39 c-115 -44 -285 -91 -299 -82 -18 11 -8 23 29
34 55 18 57 25 12 45 -94 42 -75 66 52 62 73 -2 90 1 105 16 22 23 74 18 151
-14z m197 -11 c37 -17 31 -28 -16 -28 -42 0 -79 14 -79 30 0 14 64 12 95 -2z
m-1597 -49 c2 -32 1 -33 -13 -15 -18 24 -20 59 -2 54 6 -3 13 -20 15 -39z
m775 1 c60 -47 163 -78 151 -45 -9 23 13 18 30 -7 19 -27 21 -67 4 -72 -37
-10 -117 -21 -127 -18 -6 2 -11 12 -11 21 0 21 -32 52 -76 74 -37 19 -58 43
-49 57 10 17 50 12 78 -10z m-676 -25 c3 -9 3 -19 -1 -22 -7 -7 -36 16 -36 28
0 15 30 10 37 -6z m1446 -22 c82 -55 223 -180 273 -241 68 -83 60 -91 -42 -37
-36 19 -72 35 -80 35 -24 0 -75 29 -139 80 -70 55 -153 103 -210 120 -42 13
-62 26 -53 35 7 8 149 44 174 44 12 1 47 -16 77 -36z m143 1 c45 -22 99 -83
85 -97 -18 -18 -141 75 -141 107 0 10 21 6 56 -10z m-1138 -56 c4 -21 -27 -25
-46 -6 -20 20 -14 30 15 26 17 -2 29 -10 31 -20z m1372 -18 c45 -63 5 -98 -44
-39 -24 29 -33 59 -20 71 11 12 45 -5 64 -32z m-509 -41 c50 -22 71 -57 27
-44 -27 8 -108 54 -108 60 0 11 34 4 81 -16z m689 -53 c108 -81 320 -298 320
-327 0 -19 -4 -21 -37 -16 -67 11 -199 84 -268 149 -36 33 -65 55 -65 49 0
-19 28 -81 45 -97 18 -19 20 -54 2 -54 -7 0 -31 19 -53 43 -80 83 -101 131
-69 157 10 8 15 31 15 70 0 58 7 90 19 90 3 0 44 -29 91 -64z m-804 30 c10 -8
16 -18 12 -22 -11 -10 -60 14 -53 26 8 14 18 13 41 -4z m-607 -25 c19 -12 -4
-51 -32 -53 -45 -3 -83 4 -105 18 -19 12 -21 18 -11 30 13 16 124 20 148 5z
m1215 -23 c18 -25 22 -78 6 -78 -9 0 -60 79 -60 93 0 16 40 5 54 -15z m-1623
-49 c26 -16 53 -37 61 -46 11 -14 10 -15 -12 -8 -35 10 -109 57 -115 72 -7 21
15 15 66 -18z m2115 -36 c139 -121 304 -341 304 -405 0 -36 -15 -35 -71 2 -54
35 -86 74 -163 195 -31 50 -82 125 -111 168 -53 74 -66 107 -45 107 5 0 44
-30 86 -67z m-1074 37 c60 -22 117 -64 105 -76 -10 -10 -98 20 -154 52 -77 44
-45 59 49 24z m307 -87 c31 -18 41 -28 29 -31 -25 -5 -88 25 -88 42 0 21 6 20
59 -11z m-1545 -19 c4 -9 4 -19 2 -22 -10 -9 -36 8 -36 23 0 20 26 19 34 -1z
m274 -1 c-4 -20 -45 -30 -60 -15 -16 16 1 32 33 32 24 0 30 -4 27 -17z m332
-38 c16 -19 3 -40 -16 -24 -15 13 -19 39 -5 39 5 0 14 -7 21 -15z m356 -21
c40 -19 44 -34 8 -34 -33 0 -64 17 -64 35 0 19 14 19 56 -1z m349 -31 c22 -12
54 -35 70 -53 17 -18 46 -40 66 -50 20 -11 39 -26 43 -35 9 -24 7 -125 -2
-125 -5 0 -21 14 -38 31 -16 17 -54 43 -84 57 -62 30 -150 112 -150 140 0 10
-7 27 -15 38 -8 10 -15 22 -15 25 0 12 86 -8 125 -28z m-177 -86 c26 -24 28
-37 7 -37 -21 0 -68 47 -60 60 7 12 20 6 53 -23z m-462 -90 c-32 -100 -46
-125 -46 -81 0 36 26 127 48 169 28 52 27 2 -2 -88z m158 63 c6 -31 9 -34 58
-44 40 -9 51 -54 34 -136 -16 -73 -53 -177 -66 -185 -17 -11 -77 326 -66 371
9 34 32 30 40 -6z m4334 -1 c17 -6 33 -18 36 -27 16 -54 27 -173 27 -309 1
-127 -2 -158 -15 -172 -24 -27 -19 -48 14 -60 27 -9 30 -14 30 -53 0 -39 -41
-213 -53 -225 -3 -2 -42 21 -86 52 -106 74 -161 90 -161 46 0 -12 38 -43 108
-89 171 -111 264 -230 308 -392 30 -109 24 -301 -14 -485 -73 -351 -97 -551
-87 -747 l7 -137 -100 -50 c-141 -71 -303 -143 -309 -137 -3 3 13 44 35 93 53
116 73 212 73 343 0 92 -4 119 -32 206 -48 151 -100 256 -140 284 -43 30 -189
153 -186 157 2 1 57 18 122 38 139 42 205 69 205 85 0 12 10 14 -270 -55 -303
-75 -446 -98 -610 -98 -189 -1 -302 31 -387 108 -96 85 -123 177 -103 340 47
388 215 677 470 809 153 79 222 121 321 197 137 103 224 142 455 200 108 27
215 58 238 69 48 23 62 24 104 9z m-3092 -71 c30 -28 52 -53 50 -55 -6 -7 -88
37 -113 60 -13 11 -23 26 -23 34 0 26 32 12 86 -39z m-496 12 c16 -29 8 -81
-13 -94 -22 -14 -37 6 -37 51 0 61 28 85 50 43z m-375 -31 c20 -18 33 -34 31
-37 -8 -7 -86 46 -86 58 0 18 19 11 55 -21z m-443 -75 c4 -49 14 -133 23 -187
19 -124 19 -174 -1 -250 -25 -97 -142 -414 -187 -507 l-41 -85 -4 45 c-2 25 1
88 8 140 24 201 92 659 111 750 24 108 56 193 73 187 6 -2 14 -42 18 -93z
m348 20 c0 -17 -12 -18 -27 -3 -17 17 -5 43 13 28 8 -6 14 -18 14 -25z m798 8
c2 -12 -1 -22 -7 -22 -13 0 -32 35 -24 44 12 12 28 0 31 -22z m429 -57 c57
-57 85 -106 69 -122 -8 -9 -55 37 -122 118 -92 113 -59 115 53 4z m-619 50
c31 -26 59 -81 48 -93 -8 -7 -53 43 -81 91 -20 34 -6 35 33 2z m3614 -79 c9
-58 8 -83 -1 -103 -20 -44 -31 -9 -31 102 0 118 16 119 32 1z m-3205 36 c75
-38 88 -54 102 -127 6 -33 14 -71 18 -85 5 -23 2 -22 -37 15 -44 42 -159 184
-179 222 -11 21 -10 22 13 13 13 -5 51 -22 83 -38z m-901 -43 c18 -35 18 -73
0 -88 -16 -13 -88 0 -143 26 -34 16 -37 21 -27 47 9 24 29 19 43 -10 16 -36
34 -26 48 27 6 24 12 45 12 46 4 11 56 -27 67 -48z m1387 33 c23 -25 59 -110
52 -122 -9 -15 -24 -3 -56 48 -41 65 -38 121 4 74z m-1175 -38 c53 -37 48 -94
-8 -94 -27 0 -30 -3 -30 -30 0 -34 -6 -36 -38 -14 -28 19 -28 42 -1 105 23 53
39 60 77 33z m276 -17 c30 -39 37 -78 10 -56 -21 17 -57 89 -45 89 6 0 21 -15
35 -33z m2586 -16 c0 -21 -120 -96 -142 -89 -9 3 118 96 135 97 4 1 7 -3 7 -8z
m-2468 -75 c-9 -18 -11 -16 -11 19 0 33 1 37 10 21 8 -12 8 -25 1 -40z m-831
14 c25 -14 24 -37 -1 -45 -19 -6 -19 -8 -3 -31 15 -24 14 -29 -27 -124 -25
-60 -48 -100 -56 -100 -25 0 -36 50 -30 125 9 92 21 136 46 163 23 24 41 27
71 12z m594 -15 c46 -45 27 -137 -25 -120 -36 11 -53 49 -46 100 8 53 32 60
71 20z m1177 -25 c33 -54 110 -255 106 -277 -4 -19 -78 94 -135 206 -44 87
-49 125 -15 119 9 -2 29 -23 44 -48z m-147 -21 c15 -28 25 -60 23 -72 -3 -19
-6 -18 -26 15 -22 36 -41 108 -28 108 3 0 17 -23 31 -51z m-1465 31 c11 -7 12
-12 4 -20 -12 -12 -64 6 -64 22 0 11 41 10 60 -2z m765 -22 c12 -60 8 -97 -11
-105 -23 -9 -44 23 -44 67 0 55 44 86 55 38z m581 -45 c-4 -4 -14 1 -22 11
-22 31 -17 43 8 19 12 -13 18 -26 14 -30z m-2536 2 c0 -2 -4 -14 -10 -27 -11
-25 -52 -318 -51 -359 1 -14 10 -52 20 -83 33 -95 43 -202 39 -403 -5 -211
-19 -271 -84 -370 -50 -77 -127 -132 -326 -234 -196 -101 -258 -141 -258 -170
0 -28 -19 -23 -26 7 -8 33 3 176 19 238 11 45 15 49 63 66 74 26 193 97 236
142 21 21 46 38 57 38 11 0 38 18 60 40 41 42 61 50 61 25 0 -24 16 -17 50 22
89 101 110 239 55 349 -24 48 -43 67 -94 102 -68 45 -93 50 -99 17 -6 -30 -18
-38 -41 -26 -27 15 -27 48 -2 205 15 91 26 128 47 160 62 93 284 298 284 261z
m-753 -77 c-2 -13 -4 -3 -4 22 0 25 2 35 4 23 2 -13 2 -33 0 -45z m3159 -40
c8 -26 14 -58 12 -70 -3 -22 -5 -21 -21 9 -9 18 -24 60 -32 95 -14 63 -14 63
5 38 11 -14 27 -46 36 -72z m-616 37 c-7 -8 -16 -15 -21 -15 -13 0 -11 24 3
38 18 18 35 -3 18 -23z m811 -102 c22 -44 29 -70 25 -88 -4 -14 -10 -25 -15
-25 -13 0 -81 154 -87 196 l-5 39 26 -30 c14 -16 39 -58 56 -92z m-638 72 c8
-19 -40 -57 -67 -53 -32 5 -30 26 6 48 39 24 54 25 61 5z m-1343 -14 c0 -11
-4 -23 -10 -26 -6 -4 -10 5 -10 19 0 14 5 26 10 26 6 0 10 -9 10 -19z m750
-30 c-1 -17 -20 -33 -34 -28 -19 8 -21 38 -4 55 10 10 15 9 25 -5 7 -9 13 -19
13 -22z m-220 -25 c0 -68 -24 -99 -59 -77 -11 7 -8 20 14 70 15 33 32 61 36
61 5 0 9 -24 9 -54z m1311 17 c-9 -16 -10 -14 -11 12 0 21 3 26 11 18 8 -8 8
-16 0 -30z m279 -8 c16 -50 5 -68 -14 -23 -18 42 -20 58 -7 58 5 0 15 -16 21
-35z m113 -57 c48 -96 67 -187 66 -308 -2 -167 -24 -193 -62 -73 -28 88 -53
233 -63 372 -9 117 4 119 59 9z m-1448 -24 c0 -19 -5 -29 -15 -29 -16 0 -25
28 -16 51 10 25 31 10 31 -22z m150 26 c4 -6 1 -18 -6 -26 -11 -13 -14 -13
-27 0 -8 8 -11 19 -8 25 9 14 33 14 41 1z m1465 -144 c21 -83 54 -329 47 -348
-3 -7 -10 0 -16 16 -15 37 -78 351 -86 426 l-6 55 21 -38 c12 -21 30 -71 40
-111z m-1803 118 c8 -21 -13 -42 -28 -27 -13 13 -5 43 11 43 6 0 13 -7 17 -16z
m-332 -24 c7 -12 -12 -50 -26 -50 -13 0 -22 27 -15 45 6 17 32 20 41 5z m215
-69 c0 -16 -9 -39 -20 -52 -20 -24 -20 -24 -35 -5 -28 36 -10 86 30 86 21 0
25 -5 25 -29z m1286 -58 c16 -56 16 -103 -1 -105 -21 -3 -55 85 -55 141 0 54
0 54 20 36 11 -10 27 -42 36 -72z m294 48 c0 -11 -4 -22 -8 -25 -14 -9 -35 12
-29 28 9 23 37 20 37 -3z m-1480 -36 c0 -57 -29 -175 -43 -175 -12 0 -2 143
14 189 16 45 29 38 29 -14z m-260 -96 c-7 -16 -16 -29 -21 -29 -8 0 4 50 17
72 14 22 17 -11 4 -43z m998 7 c4 -44 -13 -70 -28 -46 -5 8 -10 32 -10 53 0
31 3 38 18 35 12 -2 18 -15 20 -42z m-910 12 c19 -19 14 -60 -23 -183 -40
-131 -83 -233 -108 -254 -15 -12 -17 -10 -17 18 0 36 37 190 76 314 38 119 46
131 72 105z m1500 -24 c1 -10 -4 -28 -12 -39 -14 -19 -15 -17 -16 23 0 31 4
42 13 40 6 -3 13 -13 15 -24z m-1418 -113 c5 -11 10 -38 10 -60 0 -33 -6 -46
-35 -74 -37 -36 -82 -63 -90 -55 -6 6 36 132 59 176 19 36 40 41 56 13z m-424
-109 c-48 -118 -125 -274 -126 -256 -1 26 158 379 167 370 3 -2 -16 -54 -41
-114z m2160 20 c10 -78 -9 -179 -50 -265 l-34 -72 -1 83 c-1 93 15 256 31 317
l10 40 18 -23 c10 -12 22 -48 26 -80z m-1077 39 c20 -27 28 -61 15 -61 -28 0
-93 87 -77 103 9 10 40 -11 62 -42z m-918 -80 c-33 -99 -100 -237 -101 -208
-1 47 121 349 128 315 2 -9 -10 -57 -27 -107z m1185 95 c7 -19 -22 -73 -46
-86 -18 -10 -20 -8 -20 25 0 20 5 45 10 56 12 22 48 25 56 5z m355 -33 c13
-36 2 -83 -20 -83 -28 0 -55 82 -34 103 15 16 44 5 54 -20z m-981 -14 c0 -17
-20 -49 -30 -49 -14 0 -12 34 2 48 15 15 28 15 28 1z m174 -31 c8 -13 18 -42
22 -65 5 -36 3 -43 -16 -53 -42 -22 -100 10 -100 55 0 27 45 85 66 85 7 0 20
-10 28 -22z m1421 -136 c-2 -3 -11 -2 -20 1 -16 7 -20 68 -8 128 6 30 9 25 20
-46 7 -43 10 -81 8 -83z m-3765 43 c-6 -30 -16 -55 -21 -55 -5 0 -9 3 -9 8 0
23 22 137 28 146 12 19 14 -43 2 -99z m3370 86 c0 -11 -4 -23 -10 -26 -6 -4
-10 5 -10 19 0 14 5 26 10 26 6 0 10 -9 10 -19z m-526 -13 c9 -12 16 -42 16
-65 0 -40 -35 -241 -43 -250 -8 -7 -47 96 -57 147 -13 70 0 129 38 173 20 22
28 22 46 -5z m406 -49 c0 -44 -3 -60 -12 -57 -16 6 -22 41 -13 84 10 55 25 39
25 -27z m449 44 c0 -10 -6 -67 -13 -128 -9 -74 -14 -95 -16 -65 -3 71 1 193 6
202 9 14 24 8 23 -9z m-262 -75 c-2 -13 -4 -3 -4 22 0 25 2 35 4 23 2 -13 2
-33 0 -45z m-427 6 c0 -58 -36 -238 -56 -275 -38 -75 -42 -4 -8 156 33 154 64
211 64 119z m776 -81 c15 -16 16 -33 10 -168 -19 -418 -29 -535 -46 -535 -16
0 -20 63 -26 360 -6 311 -2 360 30 360 8 0 22 -8 32 -17z m-1467 -22 c23 -14
-6 -43 -38 -39 -34 4 -41 35 -9 41 13 2 25 5 28 5 3 1 11 -2 19 -7z m-159 -20
c19 -37 12 -153 -12 -201 -41 -81 -88 -59 -88 39 l0 56 19 -24 18 -23 6 68 c3
38 9 77 12 87 9 23 32 22 45 -2z m1078 -9 c2 -15 -2 -22 -12 -22 -11 0 -16 9
-16 26 0 31 23 28 28 -4z m377 -114 c-10 -37 -20 -68 -22 -68 -11 0 5 168 18
191 14 24 14 23 17 -15 2 -22 -4 -70 -13 -108z m-2185 107 c0 -4 -8 -20 -17
-38 -13 -24 -18 -28 -21 -15 -4 20 14 58 28 58 6 0 10 -2 10 -5z m1264 -21 c9
-34 -2 -108 -20 -131 -12 -16 -13 -9 -14 54 0 72 6 103 20 103 4 0 11 -12 14
-26z m-239 -70 c0 -19 -5 -29 -15 -29 -16 0 -25 28 -16 51 10 25 31 10 31 -22z
m889 -10 c7 -18 -18 -64 -34 -64 -13 0 -13 22 0 54 11 30 25 33 34 10z m-164
-24 c0 -16 -4 -30 -10 -30 -11 0 -14 43 -3 53 11 12 13 8 13 -23z m-1210 -2
c0 -37 -48 -107 -72 -108 -20 0 -6 70 18 99 30 37 54 40 54 9z m1045 -90 c-42
-169 -98 -300 -128 -306 -13 -3 -5 29 38 152 72 205 99 268 103 239 2 -12 -4
-51 -13 -85z m636 -60 c-16 -172 -20 -192 -37 -177 -27 22 -11 193 28 309 19
55 21 13 9 -132z m-1377 89 c0 -32 -12 -68 -40 -124 -36 -71 -39 -76 -42 -48
-6 46 17 158 39 194 26 44 44 35 43 -22z m976 -24 c0 -49 -15 -93 -31 -93 -13
0 -8 127 6 150 12 20 25 -9 25 -57z m-1920 -36 c-12 -32 -26 -57 -32 -57 -13
0 -3 41 24 100 29 62 35 29 8 -43z m2224 67 c17 -44 -3 -202 -25 -189 -10 7
-12 147 -3 183 7 26 19 29 28 6z m-1859 -36 c-20 -39 -44 -68 -57 -68 -11 0 6
34 39 78 31 41 40 36 18 -10z m1671 -67 c-4 -46 -17 -87 -46 -148 -23 -46 -44
-81 -49 -79 -18 12 15 176 56 275 24 59 27 62 36 40 5 -13 6 -53 3 -88z
m-2150 -42 c-19 -52 -39 -112 -45 -134 -13 -49 -88 -124 -110 -111 -23 14 50
192 90 220 16 11 23 29 27 66 3 36 8 48 15 41 16 -16 23 -14 37 17 10 20 14
23 17 11 2 -9 -12 -58 -31 -110z m1124 85 c0 -15 -66 -114 -77 -114 -6 0 6 37
29 88 20 42 48 57 48 26z m-514 -36 c-4 -24 -23 -66 -42 -95 -58 -84 -265
-285 -280 -270 -3 3 15 31 41 63 37 45 46 63 43 86 -3 21 0 28 12 28 33 0 109
58 125 96 18 43 85 134 98 134 6 0 7 -18 3 -42z m124 -91 c-23 -60 -99 -156
-100 -124 0 21 16 53 74 152 31 53 42 65 44 49 2 -11 -6 -46 -18 -77z m170 78
c0 -9 -8 -32 -17 -53 -16 -35 -17 -36 -20 -11 -5 30 12 79 27 79 5 0 10 -7 10
-15z m1047 -33 c-7 -61 -36 -134 -49 -126 -13 8 -4 125 12 154 6 11 18 20 27
20 13 0 15 -8 10 -48z m-1646 -6 c14 -30 -1 -59 -78 -151 -56 -66 -134 -135
-154 -135 -33 0 33 100 79 119 37 16 49 41 27 58 -24 17 -12 44 40 92 51 47
71 51 86 17z m1506 -33 c-3 -10 -5 -4 -5 12 0 17 2 24 5 18 2 -7 2 -21 0 -30z
m-348 -55 c-7 -21 -19 -44 -27 -51 -13 -10 -15 -7 -10 29 7 51 41 109 47 79 1
-10 -3 -36 -10 -57z m-655 -20 c-14 -86 -67 -199 -100 -212 -14 -6 -16 0 -11
36 10 85 76 218 108 218 5 0 6 -18 3 -42z m1196 18 c0 -92 -177 -649 -180
-565 0 16 95 371 136 507 24 80 44 106 44 58z m-1010 -165 c-73 -143 -110
-194 -110 -154 0 30 37 131 67 182 32 55 106 137 111 122 2 -6 -29 -73 -68
-150z m-105 73 c-3 -19 -10 -32 -16 -29 -12 8 -11 38 3 72 9 23 12 25 15 10 3
-11 2 -34 -2 -53z m372 29 c-3 -10 -5 -4 -5 12 0 17 2 24 5 18 2 -7 2 -21 0
-30z m1203 -16 c0 -13 -7 -32 -15 -43 -14 -18 -14 -18 -15 8 0 32 9 58 21 58
5 0 9 -10 9 -23z m-703 -39 c-8 -63 -69 -176 -133 -246 -31 -35 -59 -61 -61
-58 -7 7 179 346 190 346 6 0 7 -18 4 -42z m-1081 -5 c-14 -59 -75 -170 -120
-220 -45 -49 -76 -67 -76 -43 0 43 164 290 192 290 6 0 7 -12 4 -27z m-415
-60 c-25 -49 -131 -193 -143 -193 -14 0 -9 29 11 68 23 46 107 162 130 180 25
20 26 -9 2 -55z m1289 26 c0 -34 -16 -69 -30 -69 -14 0 -12 37 2 76 14 39 28
35 28 -7z m743 -77 c-5 -239 -178 -665 -353 -867 -22 -25 -40 -43 -40 -39 0 4
41 133 90 288 50 155 100 310 111 346 11 36 54 134 95 219 85 177 100 185 97
53z m-1143 63 c-26 -67 -70 -126 -70 -93 0 25 51 118 66 118 10 0 11 -6 4 -25z
m-1280 -50 c0 -23 -154 -280 -204 -340 -52 -62 -19 48 49 163 57 97 155 209
155 177z m-156 -21 c9 -3 16 -14 16 -23 0 -9 -32 -80 -72 -159 -61 -119 -70
-144 -58 -152 12 -8 11 -17 -13 -65 -15 -31 -35 -58 -45 -62 -33 -12 -62 -47
-129 -156 -44 -70 -69 -102 -71 -90 -1 10 22 86 52 168 66 182 72 205 56 205
-20 0 -90 -76 -90 -98 0 -34 -28 -107 -96 -253 -35 -74 -69 -157 -76 -182 -9
-34 -17 -47 -30 -47 -15 0 -18 -9 -18 -50 0 -68 -35 -204 -68 -265 -24 -44
-36 -54 -102 -86 -77 -38 -99 -64 -99 -119 -1 -24 1 -23 34 15 l34 40 1 -42
c0 -24 4 -43 9 -43 11 0 21 35 21 73 0 19 4 27 13 24 6 -2 20 0 30 5 15 8 17
6 12 -14 -3 -13 -28 -115 -56 -228 -43 -175 -51 -225 -56 -339 -6 -127 -7
-132 -21 -105 l-16 29 -6 -24 c-7 -31 -23 -36 -41 -15 -11 13 -14 51 -14 158
1 152 15 239 49 298 27 48 14 59 -25 22 l-32 -29 7 135 c13 281 16 300 44 307
30 7 61 73 69 147 7 63 -10 82 -37 45 l-18 -23 -4 25 c-3 21 -9 24 -45 27 -39
3 -43 6 -43 29 0 35 37 73 71 73 32 0 51 25 77 106 46 140 33 155 -29 33 -31
-63 -43 -79 -52 -70 -14 14 -17 362 -4 483 8 72 10 76 27 66 15 -10 46 -1 172
49 184 74 370 131 573 176 31 7 82 8 99 1z m680 -54 c-40 -74 -194 -208 -194
-170 0 13 211 232 218 226 2 -3 -9 -28 -24 -56z m936 37 c0 -19 -53 -93 -57
-80 -5 15 35 93 47 93 6 0 10 -6 10 -13z m740 -22 c-24 -64 -127 -231 -136
-222 -6 6 67 154 103 209 29 43 47 51 33 13z m407 -59 c-2 -23 -27 -104 -55
-180 -29 -77 -50 -141 -48 -143 2 -2 14 10 26 26 27 38 45 40 36 4 -9 -35
-144 -304 -162 -323 -19 -19 -18 -5 2 74 20 78 63 176 78 176 7 0 10 18 7 51
-2 39 8 85 44 202 26 84 52 163 58 177 l11 25 4 -24 c2 -13 2 -42 -1 -65z
m-1737 30 c0 -41 -87 -166 -128 -183 -22 -9 -32 -19 -28 -28 5 -15 -18 -45
-35 -45 -19 0 -8 28 41 101 56 85 121 159 138 159 7 0 12 -2 12 -4z m-660 -91
c0 -5 -9 -16 -19 -22 -11 -7 -32 -34 -47 -60 -73 -127 -164 -240 -184 -228 -6
4 -19 -14 -32 -42 -28 -64 -98 -173 -168 -258 -31 -38 -64 -82 -73 -97 -25
-41 -40 -34 -22 10 49 117 273 451 430 640 81 97 89 104 102 87 7 -11 13 -24
13 -30z m976 -11 c-7 -26 -26 -33 -26 -10 0 8 5 27 12 43 9 23 12 25 15 10 3
-10 2 -29 -1 -43z m-1156 31 c0 -20 -22 -65 -32 -65 -11 0 -10 37 2 61 13 22
30 25 30 4z m626 -63 c-19 -36 -105 -122 -123 -122 -21 0 -15 42 10 72 22 26
118 90 125 83 2 -2 -3 -16 -12 -33z m2001 -9 c-3 -10 -5 -2 -5 17 0 19 2 27 5
18 2 -10 2 -26 0 -35z m-1222 -5 c-11 -34 -48 -98 -57 -98 -10 0 -10 1 4 41
14 43 37 79 50 79 5 0 6 -10 3 -22z m303 -30 c-7 -18 -56 -121 -109 -228 -96
-191 -197 -360 -234 -390 -17 -14 -17 -13 -10 10 23 77 161 362 240 496 44 75
100 144 116 144 5 0 3 -15 -3 -32z m-418 -2 c0 -8 -20 -36 -46 -63 -46 -49
-45 -37 3 40 24 38 43 48 43 23z m-250 -25 c0 -13 -82 -121 -92 -121 -13 0 18
55 53 95 32 36 39 41 39 26z m730 -41 c0 -118 -261 -621 -458 -881 -62 -83
-202 -246 -202 -236 0 10 126 280 160 345 54 100 86 139 125 153 24 9 33 18
33 35 0 27 28 69 99 146 45 49 52 62 47 87 -5 23 8 59 60 168 83 170 114 225
127 218 5 -4 9 -19 9 -35z m-1467 14 c-4 -10 6 -25 27 -43 33 -27 35 -56 3
-44 -12 5 -15 2 -10 -10 9 -23 -10 -62 -38 -77 -18 -10 -30 -9 -58 1 -32 11
-39 11 -57 -6 -19 -17 -20 -17 -20 -1 0 35 35 92 88 144 53 52 76 65 65 36z
m-183 -49 c0 -15 -26 -32 -36 -23 -2 3 -2 13 2 22 8 20 34 21 34 1z m1170 -44
c0 -54 -4 -64 -43 -117 -68 -92 -257 -265 -257 -236 0 35 266 412 291 412 5 0
9 -27 9 -59z m4640 43 c0 -8 14 -20 30 -25 36 -13 43 -45 8 -34 -52 16 -135
16 -194 1 -160 -42 -168 10 -9 60 22 7 68 13 103 13 50 1 62 -2 62 -15z
m-5360 -24 c0 -19 -33 -44 -51 -38 -8 3 36 58 46 58 3 0 5 -9 5 -20z m1502
-54 c-36 -76 -161 -289 -297 -507 -168 -267 -176 -263 -35 17 128 256 336 582
357 560 3 -3 -8 -34 -25 -70z m-1382 51 c0 -21 -47 -60 -64 -54 -23 9 -19 26
4 20 14 -4 23 2 31 21 13 28 29 35 29 13z m-266 -69 c-16 -16 -37 -34 -47 -40
-17 -9 -17 -8 -3 20 19 37 69 78 74 62 2 -6 -9 -25 -24 -42z m5681 -18 c10
-11 15 -23 12 -26 -3 -3 -27 15 -54 40 -46 45 -47 46 -12 26 20 -11 44 -29 54
-40z m-6030 -37 c-51 -92 -151 -246 -174 -267 -17 -16 -19 -15 -24 11 -3 15
-9 37 -13 48 -7 20 -7 20 14 1 22 -19 22 -19 41 28 35 81 174 267 189 252 2
-3 -12 -36 -33 -73z m5946 12 c97 -47 141 -64 159 -60 26 6 83 -13 127 -42 16
-11 20 -19 13 -28 -7 -9 3 -12 40 -13 99 -2 318 -109 434 -213 36 -31 81 -69
100 -84 47 -36 47 -69 2 -149 -57 -102 -355 -456 -383 -456 -15 0 -65 63 -137
172 -91 137 -173 226 -305 328 -157 123 -435 280 -494 280 -12 0 -33 7 -46 17
-14 10 -57 19 -109 24 -99 9 -115 19 -75 47 88 62 359 189 471 222 37 10 68
19 68 19 1 1 62 -28 135 -64z m-5051 41 c0 -8 -21 -36 -46 -63 -50 -53 -49
-43 3 30 37 50 43 55 43 33z m-430 -14 c0 -15 -45 -50 -72 -57 -23 -6 -28 -13
-28 -38 0 -25 -13 -43 -67 -95 -89 -86 -71 -94 44 -21 35 22 53 19 53 -11 0
-22 -28 -40 -61 -40 -12 0 -37 -13 -56 -30 -18 -16 -38 -30 -42 -30 -5 0 -11
15 -14 33 -4 24 2 44 25 82 39 64 124 166 163 193 30 23 55 28 55 14z m2016
-194 c-50 -211 -159 -504 -244 -658 -58 -106 -129 -205 -190 -262 -55 -52
-102 -86 -102 -72 0 3 34 43 77 88 75 80 105 128 96 153 -9 23 -30 14 -63 -24
l-32 -38 28 54 c16 30 51 78 78 105 46 48 46 39 -1 -29 -19 -28 -16 -41 5 -21
48 43 192 360 216 473 8 40 38 124 65 187 28 62 51 116 51 119 0 2 8 22 17 43
17 38 17 38 21 12 2 -15 -8 -73 -22 -130z m3772 125 c13 -21 13 -23 -1 -23
-17 0 -47 26 -47 41 0 18 32 5 48 -18z m-5708 -9 c0 -21 -82 -103 -87 -87 -4
11 20 66 39 91 15 18 48 15 48 -4z m4510 -53 c0 -17 -28 -31 -84 -43 -74 -14
-95 1 -45 31 34 21 129 30 129 12z m189 -18 c-18 -21 -128 -73 -154 -73 -18 0
-18 2 5 20 23 18 134 68 154 70 5 0 2 -7 -5 -17z m-5779 -52 c0 -19 -69 -116
-77 -107 -7 7 58 126 68 126 5 0 9 -8 9 -19z m1329 -3 c-39 -74 -104 -158
-121 -158 -4 0 -8 9 -8 21 0 17 122 159 137 159 2 0 -2 -10 -8 -22z m374 -76
c-21 -28 -43 -40 -43 -24 0 6 12 25 27 43 32 37 46 21 16 -19z m977 39 c0 -20
-41 -141 -50 -146 -17 -10 -11 41 11 99 19 49 39 73 39 47z m-1680 -23 c0 -16
-37 -78 -46 -78 -10 0 4 61 17 77 14 16 29 17 29 1z m1737 -121 c-47 -99 -134
-235 -192 -301 -19 -22 -35 -37 -35 -33 0 15 126 236 160 282 21 28 53 79 71
115 51 101 48 46 -4 -63z m-1327 94 c0 -26 -118 -151 -142 -151 -15 0 10 37
68 100 53 57 74 71 74 51z m5943 -33 c34 -25 38 -55 5 -37 -29 14 -78 60 -78
71 0 10 31 -5 73 -34z m-5780 10 c-6 -7 -29 -38 -53 -68 -23 -30 -54 -79 -68
-108 -16 -35 -51 -77 -104 -127 -44 -41 -84 -75 -89 -75 -20 0 12 39 81 100
38 34 70 66 70 71 0 11 -30 0 -53 -19 -26 -23 -32 -7 -12 38 17 38 86 105 174
168 45 33 71 42 54 20z m788 -131 c-16 -64 -41 -138 -55 -165 -51 -101 -340
-447 -418 -499 -27 -18 -52 -48 -72 -87 -34 -64 -110 -155 -121 -144 -11 11
21 62 115 180 50 62 125 165 167 228 42 63 96 138 118 166 23 28 68 93 100
145 160 262 190 309 193 300 2 -5 -10 -61 -27 -124z m-2101 95 c0 -25 -48 -92
-65 -92 -21 0 -19 10 15 63 31 49 50 60 50 29z m360 -7 c0 -15 -24 -54 -31
-49 -10 6 10 54 23 54 4 0 8 -2 8 -5z m4440 -9 c0 -17 -60 -66 -80 -66 -8 0 4
18 25 40 42 43 55 49 55 26z m-4316 -17 c-8 -13 -94 -69 -106 -69 -4 0 -8 7
-8 15 0 8 21 26 48 39 50 27 77 33 66 15z m1297 -31 c-57 -132 -180 -328 -253
-400 -64 -65 -78 -60 -23 8 56 68 171 238 215 319 36 65 69 115 75 115 3 0 -4
-19 -14 -42z m-1169 -33 c-4 -27 -94 -167 -109 -173 -22 -7 -14 14 32 81 50
73 55 92 25 84 -27 -7 -25 7 3 21 32 16 53 10 49 -13z m1668 -14 c0 -5 -9 -40
-21 -77 -29 -98 -87 -200 -179 -318 -43 -57 -87 -119 -96 -139 -12 -26 -23
-36 -34 -32 -11 3 -26 -9 -46 -37 -68 -96 -428 -467 -441 -454 -3 3 10 31 28
63 67 119 89 167 85 180 -3 7 2 13 10 13 24 0 280 259 297 301 17 42 89 106
132 117 24 6 37 21 65 75 19 37 54 89 78 116 47 56 51 66 22 58 -44 -12 -28
24 49 106 35 36 51 46 51 28z m-2390 -26 c0 -18 -29 -47 -41 -40 -13 8 -11 39
2 52 14 14 39 6 39 -12z m324 9 c24 -23 19 -57 -10 -85 l-26 -24 19 32 c17 31
17 33 -1 46 -12 9 -17 20 -13 31 8 20 12 20 31 0z m790 -75 c-69 -101 -124
-145 -124 -99 0 11 -7 20 -15 20 -26 0 -17 28 17 52 58 42 163 105 167 102 2
-2 -18 -36 -45 -75z m3661 51 c7 -21 -5 -49 -30 -70 -28 -23 -35 2 -15 48 21
46 35 53 45 22z m-4301 -82 c-88 -177 -274 -390 -274 -314 0 31 144 230 233
324 58 59 74 55 41 -10z m-384 26 c0 -3 -5 -14 -10 -25 -16 -28 -32 -23 -18 6
10 22 28 35 28 19z m-815 -15 c10 -16 -4 -59 -19 -59 -17 0 -28 27 -21 51 7
21 30 25 40 8z m8055 -6 c0 -17 -47 -73 -61 -73 -10 0 7 58 22 76 16 19 39 18
39 -3z m-7640 -20 c0 -12 -52 -95 -57 -90 -8 8 35 97 46 97 6 0 11 -3 11 -7z
m240 -5 c0 -21 -37 -70 -77 -104 -21 -18 -34 -36 -30 -40 4 -4 42 27 85 69 43
42 81 77 85 77 22 0 -137 -255 -309 -495 -65 -91 -80 -106 -82 -87 -5 31 103
249 157 321 23 29 41 56 42 60 0 3 1 23 3 44 4 54 83 165 119 167 4 0 7 -6 7
-12z m599 -50 c-12 -20 -14 -21 -17 -5 -2 10 2 25 9 34 18 21 23 0 8 -29z
m-256 -28 c-7 -28 -89 -117 -98 -108 -9 8 12 42 56 93 35 40 50 45 42 15z
m770 -62 c-15 -29 -60 -86 -100 -127 -72 -75 -106 -91 -62 -29 48 67 170 208
180 208 6 0 -2 -23 -18 -52z m-73 12 c0 -15 -31 -60 -41 -60 -10 0 -12 31 -3
54 7 18 44 22 44 6z m461 -122 c-17 -50 -93 -165 -99 -149 -7 20 89 204 101
192 6 -6 5 -21 -2 -43z m-652 -20 c-83 -164 -238 -398 -265 -398 -16 0 -16 2
-8 24 3 9 12 16 19 16 8 0 14 20 17 58 3 51 11 68 50 123 57 80 196 239 209
239 5 0 -5 -28 -22 -62z m-618 -31 c-37 -63 -80 -117 -81 -99 0 17 36 87 74
142 42 62 48 28 7 -43z m-212 26 c-41 -98 -129 -247 -129 -220 0 8 54 135 77
182 45 89 87 120 52 38z m1151 32 c0 -15 -26 -32 -36 -23 -2 3 -2 13 2 22 8
20 34 21 34 1z m-1429 -59 c-6 -14 -15 -26 -21 -26 -14 0 -12 12 6 38 20 29
28 23 15 -12z m2624 -21 c-10 -19 -22 -35 -27 -35 -13 0 -10 12 13 49 26 43
39 31 14 -14z m-705 12 c0 -40 -138 -213 -288 -359 -74 -74 -106 -98 -125 -98
-21 0 -38 -14 -76 -62 -27 -35 -114 -126 -194 -203 -79 -77 -153 -158 -165
-180 -11 -22 -40 -58 -64 -81 -57 -54 -135 -113 -123 -94 33 55 151 210 221
290 100 116 377 390 394 390 7 0 9 -8 4 -22 -6 -21 -5 -22 11 -8 10 8 34 40
53 70 50 78 161 207 254 295 80 75 98 87 98 62z m-1300 -24 c0 -3 -24 -31 -53
-62 -53 -56 -133 -179 -122 -189 2 -3 16 0 30 6 14 7 30 12 35 12 12 0 -14
-74 -46 -127 -35 -61 -133 -163 -155 -163 -11 0 -34 -20 -55 -50 -20 -28 -39
-48 -42 -46 -6 7 99 224 139 287 16 25 29 57 29 70 0 73 156 269 214 269 14 0
26 -3 26 -7z m920 -70 c0 -5 -10 -24 -22 -43 -17 -28 -23 -31 -26 -17 -4 20
23 67 38 67 6 0 10 -3 10 -7z m5675 -103 c-38 -38 -71 -67 -74 -65 -8 9 116
134 134 135 5 0 -22 -31 -60 -70z m-7275 50 c0 -17 -31 -72 -37 -67 -8 8 17
77 28 77 5 0 9 -5 9 -10z m160 0 c0 -18 -119 -281 -176 -389 -63 -119 -122
-211 -135 -211 -45 0 97 309 244 533 48 72 67 91 67 67z m1524 -41 c-17 -33
-214 -242 -221 -235 -6 6 124 172 179 230 52 54 69 56 42 5z m-434 13 c0 -12
-56 -99 -70 -107 -18 -11 -23 1 -10 27 31 58 80 108 80 80z m-819 -56 c-21
-48 -31 -58 -31 -28 0 20 39 87 46 79 3 -3 -3 -26 -15 -51z m-91 38 c0 -15
-43 -64 -56 -64 -19 0 -18 13 7 44 18 23 49 36 49 20z m380 -4 c0 -18 -27 -65
-46 -81 -16 -13 -17 -12 -10 15 12 49 56 101 56 66z m1940 1 c0 -5 -22 -36
-50 -68 -27 -32 -50 -67 -50 -77 0 -20 -91 -116 -110 -116 -23 0 -6 32 53 103
34 41 79 95 100 121 36 44 57 57 57 37z m-2840 -86 c-16 -47 -34 -58 -25 -14
4 19 12 43 18 54 16 30 21 2 7 -40z m1651 -3 c-45 -64 -216 -247 -179 -192 12
19 57 75 98 124 41 48 82 96 90 107 8 10 19 18 23 19 5 0 -10 -26 -32 -58z
m949 50 c0 -16 -63 -97 -142 -181 -43 -46 -78 -89 -78 -96 0 -14 -33 -45 -75
-71 -29 -18 -29 -17 8 24 20 23 37 49 37 57 0 17 86 123 174 213 58 59 76 72
76 54z m-2065 -49 c-3 -16 -31 -86 -62 -158 -30 -71 -61 -157 -70 -190 -14
-57 -78 -173 -90 -162 -2 3 -9 22 -13 43 -7 28 -5 40 5 48 17 13 96 172 155
311 53 125 58 135 71 135 7 0 9 -10 4 -27z m951 -15 c3 -5 -1 -20 -10 -33 -22
-33 -20 -36 10 -24 35 13 43 3 18 -20 -29 -28 -59 -34 -78 -16 -20 21 -21 79
-1 98 15 15 50 12 61 -5z m-1415 -109 c-10 -33 -51 -84 -51 -62 0 17 32 117
43 138 11 19 12 18 15 -10 2 -16 -1 -46 -7 -66z m369 67 c0 -7 -17 -47 -37
-87 -47 -94 -57 -67 -12 31 30 66 49 87 49 56z m447 -72 c-21 -39 -29 -7 -9
37 14 30 16 31 19 12 2 -12 -2 -34 -10 -49z m379 -20 c-21 -31 -40 -54 -43
-51 -6 7 13 42 45 85 40 53 38 27 -2 -34z m-1286 9 c0 -24 -25 -9 -28 17 -3
21 -2 22 12 11 9 -7 16 -20 16 -28z m1099 -40 c-15 -45 -74 -146 -87 -151 -33
-11 2 86 53 147 33 38 47 40 34 4z m792 9 c-26 -48 -384 -372 -397 -359 -12
11 375 377 399 377 4 0 3 -8 -2 -18z m265 -38 c-4 -15 -33 -71 -64 -125 -31
-54 -72 -125 -91 -159 -39 -69 -125 -169 -136 -158 -15 15 268 468 292 468 3
0 2 -12 -1 -26z m-1502 -96 c-23 -72 -51 -127 -85 -166 -16 -18 -29 -41 -29
-52 0 -19 -49 -84 -57 -76 -6 6 85 198 140 294 46 81 58 81 31 0z m686 33 c-6
-12 -15 -21 -21 -21 -5 0 -2 15 7 33 10 17 19 27 21 20 2 -7 -1 -21 -7 -32z
m-1280 -11 c0 -6 -25 -73 -55 -149 -30 -76 -55 -149 -55 -163 0 -35 -25 -67
-41 -51 -27 27 47 277 103 348 20 25 48 34 48 15z m2118 -95 c-13 -24 -74 -75
-90 -75 -15 0 20 57 48 79 38 30 59 28 42 -4z m-1693 -79 c-14 -31 -32 -86
-41 -124 -20 -80 -44 -130 -74 -157 l-23 -20 17 33 c10 19 20 52 22 75 10 80
102 273 121 253 2 -1 -8 -28 -22 -60z m1286 45 c-6 -10 -27 -33 -48 -51 -53
-47 -58 -17 -5 32 45 41 69 51 53 19z m5409 -40 c0 -5 -12 -19 -27 -31 -32
-25 -45 -10 -17 21 18 20 44 26 44 10z m-7302 -50 c2 -19 -6 -65 -19 -103 -20
-63 -21 -75 -10 -156 6 -49 11 -118 11 -154 0 -70 6 -98 21 -98 5 0 14 10 19
23 10 22 10 22 7 -3 -1 -17 -14 -31 -42 -47 -38 -21 -39 -23 -13 -23 38 0 43
-16 13 -36 -21 -14 -30 -15 -52 -5 -25 12 -26 14 -19 79 4 37 11 175 16 307 5
132 9 244 10 248 0 5 12 7 28 5 23 -3 28 -8 30 -37z m852 -10 c-18 -36 -40
-61 -40 -46 0 15 41 85 50 85 6 0 1 -18 -10 -39z m993 -84 c-68 -84 -372 -397
-385 -397 -14 0 21 46 119 157 135 151 317 336 321 323 2 -6 -22 -43 -55 -83z
m-1606 -24 c-8 -32 -23 -83 -32 -113 -10 -35 -14 -72 -10 -102 5 -43 4 -46
-15 -41 -21 6 -41 -30 -85 -150 -9 -27 -19 -47 -20 -45 -4 4 21 139 30 169 5
16 1 19 -29 19 -27 0 -40 6 -51 24 -21 32 -16 80 8 84 32 6 65 -7 72 -28 11
-34 22 -23 49 51 30 81 32 93 11 85 -24 -9 -18 4 25 50 22 24 40 51 40 61 0
13 3 14 12 5 8 -8 7 -25 -5 -69z m92 6 c-18 -44 -22 -28 -7 27 9 37 13 43 16
26 2 -13 -2 -37 -9 -53z m145 55 c8 -20 -21 -87 -34 -79 -21 13 -4 95 19 95 5
0 12 -7 15 -16z m6681 -14 c-16 -16 -33 -30 -39 -30 -5 0 3 14 19 30 16 17 33
30 39 30 5 0 -3 -13 -19 -30z m-5395 -2 c0 -6 -87 -100 -193 -207 -106 -108
-226 -232 -266 -276 -86 -94 -75 -70 57 125 156 230 277 360 256 275 -9 -38 6
-30 71 35 60 60 75 70 75 48z m-1380 -119 c-7 -16 -17 -26 -22 -23 -10 7 -1
59 16 89 10 19 11 18 14 -9 2 -15 -2 -41 -8 -57z m704 -44 c-71 -143 -88 -139
-23 5 38 82 61 118 67 102 2 -6 -18 -55 -44 -107z m-314 33 c-32 -89 -109
-252 -116 -246 -6 7 53 164 97 255 17 36 33 62 36 59 3 -3 -4 -34 -17 -68z
m-484 -141 c-14 -67 -35 -156 -45 -197 -17 -69 -19 -72 -20 -33 -2 69 19 195
39 245 11 26 20 61 20 78 0 17 6 41 12 53 l13 22 3 -23 c2 -13 -8 -78 -22
-145z m539 23 c-17 -50 -35 -74 -35 -46 0 8 10 41 22 73 26 69 37 46 13 -27z
m-299 10 c-8 -41 -75 -185 -82 -177 -12 12 65 207 82 207 4 0 4 -14 0 -30z
m729 -50 c-16 -16 -31 -28 -34 -25 -2 3 8 19 24 35 16 16 31 28 34 25 2 -3 -8
-19 -24 -35z m29 -110 c-105 -167 -134 -203 -176 -224 l-31 -16 6 45 c4 25 14
60 23 78 21 39 65 99 71 94 2 -2 -11 -34 -28 -70 -57 -122 -28 -109 56 25 78
125 153 224 162 214 3 -3 -35 -69 -83 -146z m-1135 -106 c-21 -73 -39 -96 -39
-51 0 31 26 138 42 173 l13 29 3 -38 c2 -21 -7 -72 -19 -113z m1178 -97 c-63
-142 -188 -453 -227 -567 -18 -52 -94 -252 -170 -445 -146 -374 -175 -453
-167 -461 8 -8 44 13 120 69 37 27 69 48 71 46 2 -2 8 -46 15 -98 6 -52 15
-99 20 -104 12 -12 56 50 101 142 l34 71 27 -67 c15 -38 31 -87 34 -110 4 -24
11 -43 15 -43 22 0 61 69 91 162 l34 103 3 -72 c2 -40 -4 -100 -12 -137 -20
-83 -71 -187 -97 -193 -10 -3 -19 -8 -19 -12 0 -3 -2 -35 -3 -71 -3 -66 -31
-146 -64 -182 -29 -32 -35 -21 -28 57 5 52 4 75 -4 75 -15 0 -35 -52 -77 -203
-42 -154 -86 -257 -108 -257 -9 0 -16 3 -16 6 0 3 20 67 45 142 69 214 90 322
65 337 -14 9 -38 -11 -68 -60 l-25 -40 -14 40 c-9 24 -13 67 -11 110 3 60 1
70 -14 73 -12 2 -21 -6 -28 -23 -5 -14 -41 -75 -80 -135 -39 -60 -89 -142
-111 -182 -28 -51 -39 -64 -35 -43 3 17 19 163 36 325 54 527 73 648 137 870
65 228 116 363 153 405 10 11 28 51 40 88 27 84 91 181 202 307 45 53 103 120
128 149 24 30 46 48 48 42 2 -6 -17 -58 -41 -114z m-357 68 c0 -12 -40 -84
-50 -90 -17 -11 -11 28 10 63 17 28 40 43 40 27z m-974 -35 c21 0 17 -28 -6
-42 -24 -15 -25 -24 -5 -44 22 -23 37 -90 38 -179 l2 -80 -32 -3 c-46 -4 -56
-29 -48 -111 3 -36 2 -77 -3 -91 l-10 -25 -8 30 c-5 17 -8 63 -7 104 1 58 6
80 22 102 23 30 26 49 12 65 -23 25 -55 210 -44 254 5 19 36 31 61 24 8 -2 20
-4 28 -4z m310 -110 l-14 -45 -1 40 c0 22 5 58 11 80 l13 40 3 -35 c1 -19 -4
-55 -12 -80z m134 -49 c-34 -67 -34 -54 2 69 l13 45 3 -37 c2 -23 -5 -52 -18
-77z m-264 8 c30 -33 7 -129 -32 -129 -29 0 -39 46 -26 122 15 88 23 102 35
58 5 -19 15 -42 23 -51z m854 7 c-5 -25 -40 -110 -76 -188 -68 -148 -180 -401
-230 -523 -35 -86 -45 -62 -13 33 46 140 314 740 325 729 3 -2 0 -25 -6 -51z
m-140 25 c0 -10 -9 -29 -20 -42 l-19 -24 9 32 c14 52 30 70 30 34z m-284 -123
c-30 -144 -41 -183 -67 -238 -19 -40 -32 -85 -34 -117 -2 -29 -15 -76 -28
-105 l-25 -53 -1 39 c-1 23 6 47 15 57 10 11 17 40 19 76 1 32 12 91 24 131
12 41 26 98 31 127 5 30 16 65 26 79 21 33 46 35 40 4z m-168 -71 c2 -19 -1
-27 -12 -27 -17 0 -31 34 -21 50 11 18 30 5 33 -23z m-118 -24 c0 -20 -3 -24
-11 -16 -7 7 -9 19 -6 27 10 24 17 19 17 -11z m-220 -22 c0 -33 -18 -132 -25
-140 -3 -2 -15 6 -26 18 -14 15 -30 21 -47 19 -24 -3 -27 1 -30 32 l-4 34 21
-24 c11 -14 20 -19 21 -12 0 7 11 17 24 22 15 5 29 22 36 44 14 43 30 47 30 7z
m-75 -283 c-4 -13 -9 -31 -11 -40 -5 -18 -24 -25 -24 -9 0 4 5 22 11 40 12 35
34 43 24 9z m345 -9 c0 -10 -4 -19 -10 -19 -5 0 -10 12 -10 26 0 14 4 23 10
19 6 -3 10 -15 10 -26z m-413 -31 c-2 -13 -4 -5 -4 17 -1 22 1 32 4 23 2 -10
2 -28 0 -40z m653 -76 c0 -19 -18 -42 -32 -42 -4 0 -8 14 -8 30 0 23 4 30 20
30 13 0 20 -7 20 -18z m-140 -165 c-21 -102 -31 -130 -41 -120 -12 12 3 113
29 188 17 50 17 50 20 17 2 -18 -2 -57 -8 -85z m-544 1 c5 -52 4 -61 -7 -50
-8 7 -14 41 -16 85 -4 87 12 63 23 -35z m9 -161 c4 -23 5 -60 3 -82 l-4 -40
-17 37 c-17 37 -23 118 -11 131 13 12 23 -4 29 -46z m494 -30 c12 -15 5 -27
-16 -27 -7 0 -13 9 -13 20 0 23 13 26 29 7z m2869 -133 c27 -11 32 -18 32 -46
0 -76 -74 -286 -198 -558 -38 -85 -93 -211 -122 -280 -28 -69 -123 -270 -211
-447 -87 -177 -162 -335 -165 -351 -6 -30 -6 -30 40 -30 25 0 88 -14 138 -31
151 -50 654 -164 888 -201 127 -20 159 -62 76 -101 -24 -11 -46 -29 -49 -40
-3 -10 -14 -19 -24 -19 -29 0 -106 -53 -122 -83 -20 -38 -3 -71 59 -109 49
-30 50 -32 50 -78 0 -34 7 -58 26 -85 14 -21 22 -41 17 -46 -20 -20 -140 -29
-243 -18 -284 30 -779 213 -1034 383 -99 66 -274 243 -414 418 -105 132 -125
163 -120 178 5 15 363 -142 455 -200 19 -13 24 -11 51 18 17 18 40 32 53 32
22 0 22 1 -9 29 -25 24 -32 38 -32 67 0 73 166 517 323 864 41 91 78 181 82
200 10 51 148 329 152 308 3 -10 -12 -53 -31 -96 -43 -95 -56 -147 -35 -140
14 5 51 84 134 284 81 196 118 225 233 178z m-3228 -130 c11 -77 13 -254 4
-278 -3 -9 -15 -16 -25 -16 -38 0 -52 -43 -45 -134 7 -88 2 -116 -20 -116 -10
0 -14 13 -14 44 0 73 -8 82 -41 50 -29 -28 -29 -28 -29 -5 0 13 8 36 17 52 16
26 16 31 1 62 -20 42 -41 144 -34 163 3 8 11 14 19 14 9 0 12 9 9 29 -3 25 0
30 19 33 13 2 29 13 35 25 l11 23 11 -25 c27 -59 52 -14 52 97 1 97 14 89 30
-18z m-112 32 c4 -32 -13 -56 -39 -56 -24 0 -25 36 -3 68 20 29 38 24 42 -12z
m1467 -185 c-22 -103 -54 -203 -71 -221 -12 -12 -14 -12 -14 0 0 9 5 31 10 50
6 19 22 86 36 149 14 62 31 125 37 140 l12 26 3 -34 c2 -18 -4 -68 -13 -110z
m-1095 -31 c-18 -34 -23 -16 -9 31 12 39 14 41 17 17 2 -15 -2 -37 -8 -48z
m-272 -243 c4 -29 -12 -37 -22 -11 -10 26 -7 46 7 42 6 -3 13 -17 15 -31z
m1217 -85 c-34 -136 -68 -230 -121 -333 -47 -92 -107 -169 -120 -156 -12 11
12 90 55 187 65 144 132 293 149 334 20 47 55 93 59 79 2 -6 -8 -56 -22 -111z
m-1147 28 c-3 -29 -31 -34 -36 -7 -2 10 2 32 9 49 13 31 13 31 21 7 5 -13 8
-35 6 -49z m210 -42 l-6 -113 28 80 28 80 1 -105 c1 -130 -16 -522 -25 -570
l-7 -35 -9 30 c-6 17 -12 122 -15 235 -5 196 -12 248 -34 235 -20 -13 -2 163
27 258 13 41 17 10 12 -95z m530 -55 c-5 -64 -55 -203 -74 -203 -13 0 39 224
61 260 14 22 17 7 13 -57z m-178 -398 c-55 -219 -100 -402 -100 -407 0 -4 6
-8 13 -8 19 0 33 34 62 153 43 171 46 178 55 172 20 -13 -19 -346 -56 -471
-26 -93 -81 -226 -116 -282 -34 -55 -40 -26 -24 104 9 65 27 228 41 361 37
356 59 467 122 618 37 89 97 193 101 174 1 -9 -42 -195 -98 -414z m-586 376
c30 -31 28 -51 -4 -51 -21 0 -40 28 -40 59 0 28 11 26 44 -8z m427 -231 c-13
-161 -29 -270 -42 -284 -26 -29 12 484 40 529 12 19 12 -101 2 -245z m412 145
c-23 -61 -49 -75 -39 -20 4 20 17 58 29 82 22 45 22 45 25 16 2 -16 -5 -51
-15 -78z m-933 7 c0 -21 -26 2 -33 29 -5 20 -5 20 14 3 10 -9 19 -24 19 -32z
m87 -35 c-7 -11 -19 -23 -25 -25 -17 -5 -15 24 4 42 22 23 39 9 21 -17z m753
-217 c-12 -57 -28 -119 -36 -139 l-16 -36 -10 25 c-18 47 11 220 51 295 l26
50 3 -46 c2 -25 -6 -92 -18 -149z m-885 155 c16 -15 25 -35 25 -56 0 -32 0
-32 -21 -13 -13 11 -36 19 -58 19 -29 0 -37 4 -39 21 -4 26 22 54 49 54 11 0
31 -11 44 -25z m293 -179 l-13 -71 -3 55 c-2 30 2 80 10 110 l13 55 3 -39 c2
-21 -3 -71 -10 -110z m-300 22 c-7 -19 -38 -22 -38 -4 0 10 9 16 21 16 12 0
19 -5 17 -12z m58 -84 c-4 -13 -11 -24 -16 -24 -14 0 -12 30 2 71 l13 34 3
-29 c2 -15 1 -39 -2 -52z m899 -140 c-28 -118 -55 -187 -87 -221 -43 -46 -48
-8 -17 118 27 106 69 201 100 223 34 24 35 7 4 -120z m-917 -54 c5 -103 -25
-277 -44 -257 -3 2 -9 32 -14 66 -5 33 -18 74 -29 90 -33 46 -24 89 36 169 35
46 47 30 51 -68z m272 -33 c0 -12 4 -28 9 -36 7 -11 11 -10 19 5 10 19 11 19
18 0 13 -34 -12 -350 -31 -390 -10 -20 -15 -47 -13 -61 6 -28 -3 -32 -22 -10
-30 36 -31 220 -4 467 6 54 24 72 24 25z m228 -169 l-13 -43 -3 42 c-2 23 3
61 10 85 l13 43 3 -42 c2 -23 -3 -61 -10 -85z m303 -105 c-6 -21 -18 -47 -26
-58 -16 -19 -16 -18 -12 16 7 48 39 119 44 97 2 -9 0 -34 -6 -55z m-490 -366
c-32 -146 -57 -212 -46 -122 8 68 55 298 63 310 18 28 10 -67 -17 -188z m109
168 c0 -8 -4 -17 -10 -20 -6 -4 -10 5 -10 20 0 15 4 24 10 20 6 -3 10 -12 10
-20z m211 -83 c-7 -24 -30 -60 -56 -89 -52 -55 -50 -43 10 77 24 48 40 69 46
63 7 -7 7 -24 0 -51z m-484 -204 c-2 -18 -4 -6 -4 27 0 33 2 48 4 33 2 -15 2
-42 0 -60z m463 63 c0 -5 -9 -29 -20 -54 -13 -29 -18 -56 -14 -71 8 -34 -9
-108 -52 -224 -44 -118 -152 -347 -160 -340 -15 16 84 474 120 553 33 73 126
173 126 136z m-170 -38 c0 -20 -3 -24 -11 -16 -7 7 -9 19 -6 27 10 24 17 19
17 -11z m-271 -152 c23 -42 24 -97 2 -147 -20 -45 -99 -159 -106 -152 -1 2 3
53 10 113 20 167 32 205 65 205 11 0 24 -8 29 -19z m145 -203 c-14 -62 -31
-122 -37 -133 -10 -18 -12 -17 -19 15 -7 33 -5 74 8 143 6 28 62 102 71 93 2
-2 -8 -55 -23 -118z m372 21 l-14 -34 -1 31 c-1 17 5 46 12 65 l12 34 3 -31
c2 -17 -4 -47 -12 -65z m-146 -111 c-30 -102 -92 -227 -130 -263 -32 -30 -32
-30 -25 -5 26 85 161 357 172 346 3 -3 -5 -38 -17 -78z m-316 -126 c0 -54 -6
-80 -31 -132 l-31 -65 -1 66 c-1 70 15 172 31 203 18 33 33 0 32 -72z"/>
<path d="M3593 8190 c0 -25 2 -35 4 -22 2 12 2 32 0 45 -2 12 -4 2 -4 -23z"/>
<path d="M3783 8055 c0 -22 2 -30 4 -17 2 12 2 30 0 40 -3 9 -5 -1 -4 -23z"/>
<path d="M283 6955 c0 -22 2 -30 4 -17 2 12 2 30 0 40 -3 9 -5 -1 -4 -23z"/>
<path d="M568 6943 c-37 -41 -121 -163 -116 -169 8 -7 101 113 142 184 12 20
1 14 -26 -15z"/>
<path d="M228 6439 c-31 -40 -35 -59 -13 -59 20 0 47 44 43 72 -3 22 -4 21
-30 -13z"/>
<path d="M361 6432 c-14 -26 -14 -42 -1 -42 11 0 25 48 17 56 -3 3 -10 -3 -16
-14z"/>
<path d="M1071 4040 c0 -33 1 -34 10 -11 6 16 6 28 -1 35 -7 7 -10 -1 -9 -24z"/>
<path d="M1020 3825 c0 -15 4 -24 10 -20 6 3 10 12 10 20 0 8 -4 17 -10 20 -6
4 -10 -5 -10 -20z"/>
<path d="M995 3748 c-4 -10 -4 -26 0 -35 8 -17 8 -17 12 0 3 9 3 25 0 35 -4
16 -4 16 -12 0z"/>
<path d="M1302 2818 c-18 -18 -15 -41 4 -34 9 3 18 6 20 6 8 0 4 29 -4 34 -5
3 -14 0 -20 -6z"/>
<path d="M490 2535 c0 -14 5 -25 10 -25 6 0 10 11 10 25 0 14 -4 25 -10 25 -5
0 -10 -11 -10 -25z"/>
<path d="M270 11043 c0 -197 -7 -504 -15 -683 -13 -288 -21 -606 -42 -1571 -4
-176 -2 -268 4 -272 13 -8 19 28 33 188 6 66 15 161 21 212 7 66 7 108 -1 150
-9 45 -7 159 10 523 45 1018 73 1230 183 1403 19 29 39 68 45 87 20 56 81 107
82 68 0 -7 20 23 43 67 23 45 59 104 79 133 l38 52 -153 0 -153 0 4 -34 c6
-54 -55 -236 -79 -236 -19 0 -7 178 17 253 5 15 -2 17 -55 17 l-61 0 0 -357z"/>
<path d="M864 11367 c-24 -37 -39 -77 -28 -77 14 0 73 50 94 80 l21 30 -33 0
c-26 0 -37 -7 -54 -33z"/>
<path d="M793 11367 c-34 -37 -39 -52 -10 -31 25 18 42 43 34 50 -2 2 -13 -6
-24 -19z"/>
<path d="M744 11190 c-15 -22 -25 -43 -22 -45 7 -8 43 25 63 58 16 24 16 27 1
27 -9 0 -28 -18 -42 -40z"/>
<path d="M1332 10474 c3 -19 34 -41 43 -32 4 3 2 16 -5 27 -13 25 -43 28 -38
5z"/>
<path d="M447 10474 c-8 -9 -9 -80 -1 -112 9 -33 34 -9 34 32 -1 37 -22 91
-33 80z"/>
<path d="M417 10270 c-3 -14 -9 -47 -13 -75 -6 -45 -6 -49 9 -36 21 17 30 67
19 106 l-9 30 -6 -25z"/>
<path d="M333 9305 c0 -22 2 -30 4 -17 2 12 2 30 0 40 -3 9 -5 -1 -4 -23z"/>
<path d="M1313 8680 c0 -25 2 -35 4 -22 2 12 2 32 0 45 -2 12 -4 2 -4 -23z"/>
<path d="M1280 8575 c0 -14 5 -25 10 -25 6 0 10 11 10 25 0 14 -4 25 -10 25
-5 0 -10 -11 -10 -25z"/>
<path d="M1260 8467 c0 -20 4 -37 9 -37 10 0 9 56 -2 66 -4 4 -7 -9 -7 -29z"/>
<path d="M6151 6547 c-79 -32 -119 -97 -60 -97 13 0 19 7 19 23 0 32 47 57
106 57 45 0 51 -3 96 -51 61 -66 68 -90 38 -146 -61 -115 -270 -250 -404 -260
-63 -6 -69 -4 -96 22 -62 59 -44 160 52 303 51 76 56 96 17 68 -80 -55 -148
-267 -117 -361 11 -34 19 -42 57 -54 106 -34 309 46 434 171 146 147 151 233
16 310 -65 38 -96 41 -158 15z"/>
<path d="M9631 6059 c-90 -24 -308 -102 -376 -135 -27 -13 -90 -57 -140 -96
-77 -63 -95 -83 -127 -146 -43 -83 -47 -113 -18 -142 28 -28 40 -17 40 37 0
164 340 372 722 443 142 26 148 28 148 46 0 22 -157 18 -249 -7z"/>
<path d="M6835 6025 c-35 -16 -34 -16 69 -18 l80 -2 54 -70 c54 -69 55 -70 49
-34 -8 54 -46 106 -90 124 -46 18 -122 19 -162 0z"/>
<path d="M9693 5953 c26 -2 67 -2 90 0 23 2 2 3 -48 3 -49 0 -68 -1 -42 -3z"/>
<path d="M6645 5926 c-93 -42 -168 -156 -168 -256 0 -71 39 -159 86 -192 90
-64 286 22 441 194 63 69 86 112 86 160 0 31 -3 27 -48 -49 -83 -143 -173
-226 -302 -279 -105 -43 -172 -27 -209 49 -27 56 -28 146 -2 203 24 54 84 120
140 156 48 30 32 39 -24 14z"/>
<path d="M5550 5861 c0 -11 -82 -47 -232 -104 -67 -25 -153 -67 -200 -97 -365
-235 -440 -292 -476 -361 -20 -40 -23 -61 -24 -165 -2 -136 13 -218 50 -287
32 -59 55 -76 152 -113 69 -26 86 -28 220 -28 224 -1 301 27 585 211 72 47
149 103 172 125 49 48 87 127 108 227 29 139 15 225 -61 372 -54 104 -121 179
-184 208 -46 21 -110 28 -110 12z m44 -115 c3 -14 19 -38 36 -54 l30 -30 0 54
c0 39 4 54 13 54 37 0 57 -58 72 -201 4 -31 13 -65 21 -75 14 -17 15 -11 10
66 l-5 85 22 -45 c28 -60 36 -232 14 -305 -8 -30 -13 -71 -10 -101 5 -44 2
-54 -22 -82 -15 -18 -35 -37 -45 -42 -16 -8 -17 -4 -12 60 3 44 1 70 -5 70
-12 0 -23 -33 -23 -72 0 -39 -35 -126 -61 -154 -33 -35 -61 -30 -106 19 -40
43 -125 190 -138 237 l-6 25 23 -25 c13 -14 40 -46 62 -70 l39 -45 -6 105 c-7
133 -57 350 -81 350 -3 0 -12 -12 -19 -26 l-14 -27 -6 30 c-3 16 -25 48 -49
71 -52 51 -48 56 67 103 105 41 124 47 161 48 26 1 33 -4 38 -23z m-334 -135
c13 -25 13 -64 -1 -78 -7 -7 -4 -24 11 -57 12 -25 24 -46 25 -46 2 0 1 19 -2
43 -4 39 -3 41 11 23 20 -25 21 -114 1 -140 -13 -18 -12 -25 15 -73 17 -29 30
-58 30 -65 0 -21 -61 46 -97 106 -38 66 -85 124 -126 156 -22 18 -26 19 -20 4
6 -15 1 -17 -50 -11 -32 3 -55 2 -52 -3 3 -5 29 -22 58 -39 73 -42 94 -66 76
-87 -12 -14 -8 -20 26 -47 59 -44 327 -319 348 -355 27 -47 7 -43 -131 30 -64
33 -133 69 -152 79 -19 10 -77 28 -128 41 -81 19 -91 24 -76 35 16 12 14 13
-17 13 -64 -1 -266 -28 -287 -39 -37 -20 -52 -14 -52 22 0 18 6 41 14 52 14
19 32 18 144 -4 48 -10 55 -1 15 19 -28 14 -28 14 24 21 29 4 61 10 70 13 15
6 15 8 3 17 -9 6 -54 7 -110 4 -52 -3 -101 -2 -108 3 -59 40 257 294 458 368
50 18 68 17 80 -5z"/>
<path d="M5450 5668 c0 -52 115 -408 132 -408 25 0 -32 251 -81 356 -27 59
-51 82 -51 52z"/>
<path d="M5595 5633 c-13 -51 -6 -148 15 -207 28 -83 25 -119 -20 -252 -22
-65 -38 -119 -36 -122 7 -6 55 73 90 148 27 57 31 75 30 145 -2 109 -43 315
-64 315 -4 0 -11 -12 -15 -27z"/>
<path d="M5685 5563 c11 -127 64 -351 65 -278 0 34 -29 256 -41 308 -18 76
-32 58 -24 -30z"/>
<path d="M5768 5406 c-3 -14 -1 -31 3 -38 6 -8 9 1 9 25 0 42 -6 48 -12 13z"/>
<path d="M5030 5394 c0 -21 17 -51 55 -99 47 -59 48 -62 16 -57 -37 5 -80 -16
-60 -29 8 -5 29 -9 47 -9 47 0 98 -24 167 -78 l59 -47 -32 47 c-17 25 -68 79
-112 120 -78 73 -91 93 -69 115 7 7 3 14 -13 25 -39 25 -58 29 -58 12z"/>
<path d="M4880 5335 c12 -15 114 -66 159 -80 16 -5 21 -4 17 4 -9 14 -94 58
-149 77 -35 12 -38 12 -27 -1z"/>
<path d="M9708 5283 c18 -2 45 -2 60 0 15 2 0 4 -33 4 -33 0 -45 -2 -27 -4z"/>
<path d="M77 1255 c-10 -185 -9 -533 2 -539 12 -8 25 568 14 624 -8 40 -10 30
-16 -85z"/>
<path d="M3 1187 c2 -81 4 -95 14 -80 16 20 15 30 -2 113 l-13 65 1 -98z"/>
</g>
</svg>
